<svg width="99" height="67" viewBox="0 0 99 67" fill="none" xmlns="http://www.w3.org/2000/svg">
<mask id="mask0_0_1" style="mask-type:luminance" maskUnits="userSpaceOnUse" x="0" y="0" width="99" height="67">
<path d="M0 0H98.4469V66.0479H0V0Z" fill="white"/>
</mask>
<g mask="url(#mask0_0_1)">
<path d="M98.3246 52.7731C98.2427 53.4694 98.0527 54.1386 97.4706 54.5307C96.9313 55.6025 95.9414 56.4077 94.7449 56.8538C94.853 57.137 94.8207 57.4742 94.5924 57.7025C94.2709 58.0293 93.8631 58.35 93.4335 58.4694C92.3451 58.7631 91.2298 59.0139 90.1144 59.1439C86.4476 59.5682 82.7702 59.9333 79.0974 60.3193C74.9521 60.755 70.8061 61.2116 66.6549 61.6195C63.51 61.9297 60.36 62.158 57.2159 62.4464C53.9517 62.7461 50.6927 63.0833 47.4284 63.3823C45.4696 63.5618 43.5055 63.6872 41.5467 63.8502C39.2295 64.041 36.9169 64.2475 34.5991 64.4436C32.994 64.5743 31.3897 64.7042 29.7846 64.8184C27.5861 64.9768 25.3832 65.1233 23.1847 65.2758C20.5086 65.4605 17.837 65.7001 15.1601 65.8196C12.6034 65.9337 10.0354 65.945 7.47269 65.945C6.76516 65.945 6.04712 65.782 5.36213 65.6025C4.11607 65.281 3.26733 64.536 2.96239 63.2246C2.78814 62.4742 2.5215 61.7396 2.32021 60.9938C2.19553 60.5371 2.05958 60.0692 2.02128 59.6013C1.88533 57.8768 1.78168 56.1523 1.68404 54.427C1.46622 50.5589 1.25967 46.6908 1.05838 42.8174C0.917172 40.0804 0.759443 37.3382 0.661051 34.602C0.471025 28.944 0.291514 23.2801 0.117261 17.6168C0.057174 15.6527 0.0353925 13.6834 0.0136107 11.7193C-0.00291318 10.2884 0.459758 9.03713 1.44444 7.97584C1.95067 7.43205 2.51624 7.07303 3.27785 6.97464C4.81233 6.77935 6.3408 6.51271 7.87527 6.30016C11.2379 5.83748 14.5998 5.37556 17.9677 4.94519C20.3884 4.63574 22.8152 4.35784 25.2472 4.10247C28.3861 3.76523 31.5256 3.44977 34.6697 3.15008C36.5684 2.97057 38.4732 2.84514 40.3719 2.68215C42.5696 2.49213 44.7621 2.28483 46.9605 2.0948C48.5648 1.9536 50.1647 1.8169 51.7697 1.70273C54.1469 1.53974 56.5302 1.4038 58.9074 1.25133C62.0034 1.05529 65.0933 0.816444 68.1893 0.663973C75.6319 0.304952 83.0797 -0.0270301 90.5388 0.174262C91.5347 0.201301 92.4105 0.473196 93.2157 1.02299C93.6566 1.32794 93.7106 1.72451 93.4004 2.03997C93.8361 2.44256 94.1786 2.94879 94.4399 3.5091C94.7066 3.38968 94.9619 3.56393 95.1257 3.781C95.3705 4.11298 95.6364 4.46674 95.7453 4.8528C96.045 5.94113 96.3875 7.03472 96.4964 8.15009C96.7901 11.1695 97.0462 14.2001 97.1874 17.236C97.4052 21.8763 97.5029 26.5285 97.6719 31.1688C97.9055 37.5395 98.1608 43.911 98.3952 50.2818C98.4117 51.1087 98.4222 51.9462 98.3246 52.7731Z" fill="#4D4C4D"/>
</g>
<path d="M67.291 6.16605C64.3923 6.16605 61.4997 6.39611 58.601 6.62543C54.2523 6.94618 49.959 7.22417 45.611 7.50142C42.5273 7.73148 39.5851 8.05149 36.5021 8.42017C35.8457 8.51087 35.1937 8.55954 34.5372 8.6023C29.3042 9.15238 24.1641 9.70761 18.9311 9.9797C18.5564 9.9797 18.2304 10.1191 17.8564 10.1618C17.5739 10.1618 17.2479 10.1132 16.9662 10.1618C15.5168 10.4391 14.1649 10.6691 12.7591 10.7598C12.1513 10.7598 11.5923 10.8985 10.9837 10.8985C10.8916 10.8985 10.7507 11.0378 10.6585 11.0378C10.05 11.0378 9.53441 11.1285 8.9319 11.2192C8.51449 11.2671 8.04162 11.1713 7.62421 11.2671C6.31576 11.5451 5.05603 11.4972 3.74834 11.5879C3.51453 11.5879 3.33018 11.7265 3.09112 11.7693C2.70593 11.7693 2.35821 11.9345 2 12.0473C2 12.1217 2 12.2021 2 12.2817C2.07044 14.5042 2.13039 16.731 2.23381 18.9527C2.42341 23.0443 2.62425 27.1359 2.84157 31.2268C3.02592 34.736 3.24325 38.2399 3.43884 41.7439C3.56923 44.0828 3.69963 46.4173 3.82403 48.7562C4.00838 52.2653 4.20922 55.7693 4.36659 59.2784C4.41005 60.2716 4.30739 61.2656 4.29615 62.2588C4.28041 63.2041 4.51347 63.5352 5.409 63.7866C5.85938 63.9142 6.34274 64.0056 6.80961 63.9997C8.82923 63.968 10.8533 63.9304 12.8677 63.8235C15.0065 63.7063 17.134 63.5138 19.2676 63.3427C21.8132 63.14 24.3649 62.9261 26.9106 62.713C28.4521 62.5847 29.9884 62.4513 31.5299 62.3281C34.9067 62.056 38.2879 61.8105 41.6647 61.5111C44.9216 61.228 48.1732 60.8807 51.4301 60.5872C54.5678 60.2989 57.7107 60.0585 60.8425 59.7643C63.8011 59.4871 66.7537 59.156 69.7123 58.8566C71.3677 58.6907 73.0291 58.5624 74.6845 58.3921C77.5232 58.0979 80.3574 57.7933 83.1909 57.4836C86.2634 57.1474 89.3299 56.7839 92.4025 56.469C92.8529 56.4211 93.3467 56.5221 93.7866 56.6563C94.0257 56.7256 94.1995 56.907 94.2804 57.115C95.475 56.6777 96.4627 55.8865 97 54.8343C96.8808 54.9147 96.7505 54.9788 96.5983 55.0378C96.1045 54.9257 95.8279 54.6212 95.7358 54.1994C95.5889 53.5152 95.4098 52.8265 95.3881 52.1319C95.2194 46.9298 95.0786 41.7225 94.9377 36.5196C94.7803 30.6126 94.6447 24.7056 94.4873 18.7978C94.4221 16.2827 94.3621 13.7668 94.21 11.2568C94.1126 9.68623 93.8466 8.12154 93.6562 6.55612C93.6405 6.40643 93.6127 6.25748 93.591 6.1078C84.8358 5.83497 76.0634 6.16605 67.291 6.16605ZM90.6819 7.92393C91.3009 7.60317 92.0607 8.18569 91.9843 8.87955C91.9191 9.48861 91.6208 9.99076 91.1645 10.3963C90.2854 11.1816 89.4281 12.0045 88.4996 12.7308C83.4622 16.6514 78.403 20.5447 73.3544 24.4438C72.611 25.0153 71.8623 25.5757 71.0799 26.1685C71.3302 26.4303 71.4816 26.6124 71.6607 26.7621C75.2061 29.8222 78.2779 33.321 81.3234 36.8456C84.5586 40.5899 87.8102 44.3232 91.0131 48.094C91.9251 49.1677 92.6955 50.3585 93.5206 51.5021C93.6892 51.7366 93.8466 52.0036 93.9117 52.2815C93.9605 52.4792 93.9222 52.7837 93.7918 52.9068C93.6727 53.0189 93.331 53.0403 93.1736 52.9548C92.8154 52.7623 92.4729 52.5057 92.1799 52.2226C91.2079 51.2773 90.1933 50.3644 89.3082 49.3439C85.3402 44.7508 81.4591 40.0877 77.4528 35.5264C75.1192 32.8719 72.6162 30.3671 70.1844 27.7981C70.027 27.6322 69.821 27.5201 69.5767 27.3387C69.2567 27.5312 68.9472 27.686 68.6646 27.8888C65.6843 30.0249 62.6343 32.0601 59.4801 33.9403C59.0349 34.2073 58.5411 34.5332 58.2968 34.9601C56.9831 37.2467 55.0999 39.0252 53.0855 40.6806C51.9022 41.6524 50.6649 42.5712 49.4052 43.4531C47.8742 44.5259 46.2622 44.5318 44.5034 43.8911C41.8056 42.9082 39.5642 41.37 37.7401 39.2014C37.6637 39.1107 37.5828 39.0252 37.5011 38.9397C35.0206 36.2159 35.0206 36.2159 33.7503 32.9891C32.8436 32.6905 32.062 32.4339 31.1664 32.1404C31.0091 32.2739 30.7535 32.4236 30.5797 32.6367C24.305 40.2854 17.8834 47.822 12.0426 55.8069C11.1036 57.0884 10.1916 58.3921 9.26838 59.6847C8.95963 60.1168 8.65013 60.5444 8.1233 60.7524C7.73811 60.9072 7.17307 60.63 7.18431 60.2237C7.1948 59.8285 7.23302 59.3853 7.42337 59.0491C8.10682 57.8206 8.78577 56.5759 9.59961 55.433C12.7808 50.9727 16.3142 46.786 19.8536 42.6036C22.0628 39.9971 24.2832 37.3956 26.5194 34.8163C27.3663 33.8386 28.2895 32.9198 29.1738 31.9745C29.3259 31.8094 29.4563 31.6272 29.6467 31.3869C29.4181 31.2106 29.2555 31.0455 29.0659 30.9334C22.4645 27.1994 16.0811 23.1188 9.70303 19.0382C8.5572 18.3068 7.35817 17.6549 6.21834 16.9072C5.33331 16.3255 4.49698 15.6626 3.66665 15.0063C3.44933 14.8352 3.27022 14.5573 3.18329 14.2955C3.12409 14.1089 3.1728 13.8044 3.29795 13.6599C3.42235 13.5213 3.70487 13.4785 3.9222 13.4733C4.07957 13.4733 4.25268 13.5906 4.39956 13.6761C7.60247 15.5881 10.8046 17.4898 13.9911 19.418C15.8638 20.5498 17.7043 21.7355 19.5718 22.8843C24.0067 25.6185 28.4903 28.2626 33.0826 30.7299C33.2348 30.8102 33.4026 30.8582 33.6739 30.9702C33.9235 30.255 34.0816 29.5176 34.4233 28.882C34.8085 28.1719 35.2919 27.4722 35.8726 26.9111C36.41 26.3875 37.0941 25.9768 37.7836 25.6509C38.467 25.3301 39.2329 25.1539 39.9763 24.9615C40.7257 24.7638 41.4961 24.6466 42.2725 24.8339C43.0758 25.0315 43.9121 25.1753 44.6555 25.5064C45.345 25.8109 45.9423 26.3344 46.6534 26.8152C47.0274 26.4089 47.4133 25.982 47.809 25.5654C48.6775 24.6518 49.693 23.9734 50.925 23.6054C54.4209 22.5636 58.302 24.7004 59.2035 28.5723C59.4261 29.5287 59.4853 30.5271 59.6209 31.5203C60.1156 31.729 60.3868 31.3338 60.6851 31.1148C63.7029 28.93 66.7537 26.7887 69.7123 24.5235C74.8314 20.614 79.9063 16.6455 84.9655 12.6615C86.4965 11.4544 87.9076 10.1028 89.3847 8.83678C89.7916 8.50055 90.215 8.15841 90.6819 7.92393Z" fill="#FFE3C3"/>
<path d="M47.1868 42C44.2127 40.8049 41.8037 39.0204 39.8519 36.651C39.3352 36.025 38.7814 35.4299 38.2654 34.8089C37.2973 33.6397 36.9098 32.294 37.0174 30.8064C37.1251 29.3296 37.8244 28.192 39.1414 27.4515C41.3894 26.1886 43.8363 26.3709 46.2454 28.0725C46.627 28.3383 46.9611 28.6726 47.3479 28.9225C47.6218 29.0947 47.9232 29.0011 48.1333 28.7612C48.2402 28.6358 48.2944 28.4636 48.3753 28.3124C49.0205 27.1799 49.9774 26.3341 51.0962 25.6771C53.7473 24.1167 56.581 25.4372 57.5387 27.7641C58.1787 29.3144 58.1571 30.895 57.4467 32.4345C56.7696 33.9164 55.7963 35.216 54.5647 36.2959C53.2581 37.4442 51.8973 38.5449 50.5149 39.6147C49.4667 40.4288 48.3479 41.1701 47.1868 42Z" fill="#FAC8C8"/>
</svg>
