<svg xmlns="http://www.w3.org/2000/svg" xmlns:xlink="http://www.w3.org/1999/xlink" width="1080" zoomAndPan="magnify" viewBox="0 0 810 809.999993" height="1080" preserveAspectRatio="xMidYMid meet" version="1.0"><defs><clipPath id="18e1b0bf88"><path d="M 201.800781 427 L 327.566406 427 L 327.566406 497.167969 L 201.800781 497.167969 Z M 201.800781 427 " clip-rule="nonzero"/></clipPath><clipPath id="7a34efd0f6"><path d="M 225.710938 440.742188 C 297.882812 427.015625 299.132812 427.085938 301.488281 427.433594 C 303.847656 427.777344 306.203125 428.402344 308.421875 429.234375 C 310.640625 430.136719 312.789062 431.3125 314.730469 432.632812 C 316.671875 434.019531 318.476562 435.683594 320.070312 437.484375 C 321.59375 439.289062 322.980469 441.367188 324.023438 443.449219 C 325.132812 445.597656 325.964844 447.882812 326.519531 450.171875 C 327.003906 452.53125 327.28125 454.957031 327.28125 457.3125 C 327.210938 459.738281 326.933594 462.167969 326.308594 464.453125 C 325.6875 466.742188 324.785156 469.03125 323.675781 471.109375 C 322.566406 473.191406 321.109375 475.199219 319.515625 477.003906 C 317.921875 478.738281 316.046875 480.332031 314.109375 481.648438 C 312.097656 482.964844 309.949219 484.074219 307.660156 484.90625 C 305.441406 485.738281 304.054688 485.878906 300.726562 486.570312 C 292.199219 488.234375 264.257812 493.296875 255.523438 493.710938 C 252.054688 493.921875 250.601562 493.78125 248.175781 493.296875 C 245.816406 492.878906 243.390625 492.1875 241.171875 491.148438 C 238.882812 490.175781 236.734375 488.859375 234.792969 487.402344 C 232.851562 485.878906 231.050781 484.144531 229.59375 482.203125 C 228.066406 480.261719 226.75 478.113281 225.710938 475.894531 C 224.671875 473.675781 223.910156 471.25 223.492188 468.890625 C 223.007812 466.464844 222.867188 463.96875 223.007812 461.542969 C 223.144531 459.117188 223.5625 456.621094 224.324219 454.261719 C 225.019531 451.90625 226.058594 449.617188 227.304688 447.539062 C 228.554688 445.386719 230.078125 443.449219 231.8125 441.714844 C 233.546875 439.980469 235.488281 438.386719 237.566406 437.136719 C 239.644531 435.820312 241.726562 434.851562 244.292969 434.019531 C 247.550781 433.046875 252.265625 433.253906 255.871094 432.214844 C 259.199219 431.246094 261.902344 429.097656 265.089844 428.332031 C 268.28125 427.570312 271.746094 427.363281 275.074219 427.640625 C 278.332031 427.917969 281.730469 428.820312 284.710938 430.136719 C 287.761719 431.453125 290.671875 433.394531 293.101562 435.613281 C 295.527344 437.832031 297.675781 440.535156 299.269531 443.449219 C 300.867188 446.289062 302.042969 449.617188 302.667969 452.875 C 303.222656 456.066406 303.292969 459.601562 302.804688 462.859375 C 302.390625 466.117188 301.28125 469.445312 299.824219 472.359375 C 298.300781 475.269531 296.21875 478.113281 293.933594 480.402344 C 291.574219 482.757812 288.664062 484.769531 285.75 486.15625 C 282.769531 487.609375 279.441406 488.582031 276.183594 488.996094 C 272.925781 489.414062 269.390625 489.34375 266.199219 488.652344 C 262.941406 488.027344 259.683594 486.777344 256.839844 485.113281 C 253.996094 483.519531 251.292969 481.300781 249.074219 478.804688 C 246.925781 476.308594 245.054688 473.398438 243.804688 470.347656 C 242.488281 467.296875 241.726562 463.898438 241.449219 460.640625 C 241.242188 457.3125 241.519531 453.847656 242.351562 450.65625 C 243.183594 447.46875 244.636719 444.277344 246.371094 441.507812 C 248.175781 438.734375 250.53125 436.167969 253.164062 434.15625 C 255.730469 432.078125 258.78125 430.414062 261.902344 429.304688 C 264.953125 428.195312 268.417969 427.570312 271.746094 427.5 C 275.003906 427.433594 278.472656 427.988281 281.589844 428.957031 C 284.710938 429.929688 287.902344 431.523438 290.535156 433.464844 C 293.167969 435.40625 295.597656 437.902344 297.539062 440.605469 C 299.410156 443.308594 300.933594 446.429688 301.90625 449.617188 C 302.804688 452.738281 303.222656 456.203125 303.152344 459.53125 C 303.015625 462.789062 302.320312 466.257812 301.144531 469.308594 C 299.964844 472.359375 298.230469 475.410156 296.152344 477.972656 C 294.070312 480.46875 292.335938 482.550781 288.664062 484.558594 C 281.800781 488.304688 262.664062 492.949219 255.523438 493.710938 C 252.265625 494.058594 250.601562 493.78125 248.175781 493.296875 C 245.816406 492.878906 243.390625 492.1875 241.171875 491.148438 C 238.882812 490.175781 236.734375 488.859375 234.792969 487.402344 C 232.851562 485.878906 231.050781 484.144531 229.59375 482.203125 C 228.066406 480.261719 226.75 478.113281 225.710938 475.894531 C 224.671875 473.675781 223.910156 471.25 223.492188 468.890625 C 223.007812 466.464844 222.867188 463.96875 223.007812 461.542969 C 223.144531 459.117188 223.5625 456.621094 224.324219 454.261719 C 225.019531 451.90625 226.058594 449.617188 227.304688 447.539062 C 228.554688 445.457031 230.078125 443.449219 231.8125 441.714844 C 233.546875 439.980469 235.488281 438.386719 237.566406 437.136719 C 239.644531 435.820312 240.894531 435.058594 244.292969 434.019531 C 253.164062 431.523438 285.128906 427.917969 294.277344 427.363281 C 297.746094 427.15625 299.132812 427.085938 301.488281 427.433594 C 303.847656 427.777344 306.203125 428.402344 308.421875 429.234375 C 310.640625 430.136719 312.789062 431.3125 314.730469 432.632812 C 316.671875 434.019531 318.476562 435.683594 320 437.484375 C 321.59375 439.289062 322.980469 441.296875 324.023438 443.449219 C 325.132812 445.597656 325.964844 447.882812 326.519531 450.171875 C 327.003906 452.53125 327.28125 454.957031 327.28125 457.3125 C 327.210938 459.671875 326.933594 462.167969 326.308594 464.453125 C 325.6875 466.742188 324.785156 469.03125 323.675781 471.109375 C 322.566406 473.191406 321.109375 475.199219 319.515625 477.003906 C 317.921875 478.738281 316.046875 480.332031 314.109375 481.648438 C 312.097656 482.964844 309.949219 484.074219 307.660156 484.90625 C 305.441406 485.738281 304.261719 485.878906 300.726562 486.570312 C 289.910156 488.652344 245.46875 495.652344 234.722656 496.691406 C 231.328125 497.039062 230.148438 497.179688 227.929688 496.96875 C 225.640625 496.761719 223.355469 496.277344 221.203125 495.582031 C 219.054688 494.890625 216.976562 493.851562 215.035156 492.671875 C 213.160156 491.425781 211.359375 489.96875 209.765625 488.304688 C 208.171875 486.710938 206.785156 484.835938 205.675781 482.828125 C 204.566406 480.886719 203.59375 478.738281 202.96875 476.585938 C 202.347656 474.367188 202 472.082031 201.929688 469.792969 C 201.792969 467.574219 202 465.21875 202.484375 463 C 202.902344 460.78125 203.664062 458.5625 204.632812 456.550781 C 205.605469 454.472656 206.851562 452.53125 208.308594 450.726562 C 209.765625 448.992188 211.429688 447.398438 213.230469 446.011719 C 215.035156 444.695312 217.042969 443.515625 219.125 442.617188 C 221.273438 441.714844 225.710938 440.742188 225.710938 440.742188 " clip-rule="nonzero"/></clipPath><clipPath id="1015a364e1"><path d="M 209.363281 374.964844 L 303.347656 374.964844 L 303.347656 477.878906 L 209.363281 477.878906 Z M 209.363281 374.964844 " clip-rule="nonzero"/></clipPath><clipPath id="be7362b293"><path d="M 220.234375 427.292969 C 234.308594 415.160156 241.726562 408.089844 244.222656 403.097656 C 245.886719 399.769531 245.125 396.648438 246.234375 393.738281 C 247.410156 390.824219 249.074219 387.914062 251.15625 385.554688 C 253.164062 383.128906 255.730469 380.980469 258.367188 379.316406 C 261.070312 377.652344 264.191406 376.40625 267.238281 375.710938 C 270.289062 375.019531 273.6875 374.808594 276.808594 375.15625 C 279.925781 375.503906 283.1875 376.40625 286.027344 377.652344 C 288.871094 378.96875 291.644531 380.839844 293.933594 382.992188 C 296.289062 385.140625 298.300781 387.84375 299.757812 390.617188 C 301.28125 393.390625 302.390625 396.511719 302.875 399.628906 C 303.429688 402.75 303.429688 406.078125 302.945312 409.199219 C 302.460938 412.316406 301.351562 415.507812 299.894531 418.28125 C 298.4375 421.054688 296.429688 423.757812 294.140625 425.90625 C 291.921875 428.054688 289.148438 429.996094 286.304688 431.3125 C 283.464844 432.632812 280.203125 433.53125 277.085938 433.949219 C 273.964844 434.296875 270.636719 434.085938 267.515625 433.464844 C 264.464844 432.769531 261.347656 431.523438 258.644531 429.929688 C 255.9375 428.332031 253.375 426.183594 251.292969 423.757812 C 249.285156 421.398438 247.550781 418.558594 246.371094 415.644531 C 245.191406 412.734375 244.429688 409.40625 244.222656 406.285156 C 244.082031 403.167969 244.429688 399.839844 245.261719 396.789062 C 246.09375 393.738281 247.480469 390.6875 249.214844 388.121094 C 250.949219 385.488281 253.234375 383.058594 255.730469 381.117188 C 258.226562 379.179688 261.207031 377.582031 264.191406 376.613281 C 267.171875 375.574219 270.429688 375.019531 273.617188 375.019531 C 276.738281 375.019531 280.066406 375.503906 283.046875 376.542969 C 286.027344 377.515625 289.011719 379.039062 291.503906 380.980469 C 294 382.851562 296.359375 385.277344 298.09375 387.84375 C 299.894531 390.480469 301.351562 393.527344 302.183594 396.511719 C 303.015625 399.5625 303.359375 402.820312 303.292969 406.007812 C 303.152344 409.335938 302.945312 412.109375 301.628906 416.132812 C 299.410156 422.855469 294.417969 433.808594 288.59375 441.644531 C 282.355469 449.964844 272.230469 458.351562 264.882812 464.316406 C 259.335938 468.890625 253.441406 473.257812 249.214844 475.339844 C 246.648438 476.519531 244.914062 476.933594 242.695312 477.351562 C 240.476562 477.765625 238.121094 477.90625 235.902344 477.765625 C 233.613281 477.628906 231.328125 477.210938 229.175781 476.519531 C 227.027344 475.824219 224.878906 474.855469 223.007812 473.675781 C 221.066406 472.566406 219.195312 471.109375 217.597656 469.515625 C 216.003906 467.921875 214.617188 466.050781 213.4375 464.109375 C 212.261719 462.234375 211.289062 460.085938 210.667969 457.9375 C 209.972656 455.789062 209.558594 453.5 209.417969 451.210938 C 209.28125 448.992188 209.417969 446.636719 209.835938 444.417969 C 210.25 442.199219 210.945312 439.980469 211.84375 437.902344 C 212.816406 435.890625 213.992188 433.878906 215.378906 432.078125 C 216.765625 430.34375 220.234375 427.292969 220.234375 427.292969 " clip-rule="nonzero"/></clipPath><clipPath id="3ce4ffda4a"><path d="M 210 361.015625 L 284.84375 361.015625 L 284.84375 461.652344 L 210 461.652344 Z M 210 361.015625 " clip-rule="nonzero"/></clipPath><clipPath id="2f0335646f"><path d="M 211.011719 426.460938 C 215.449219 409.265625 220.304688 396.648438 223.699219 388.953125 C 226.265625 383.058594 228.484375 377.722656 231.257812 373.839844 C 233.335938 370.925781 235.347656 368.917969 237.84375 367.046875 C 240.339844 365.171875 243.320312 363.648438 246.300781 362.746094 C 249.214844 361.777344 252.542969 361.222656 255.660156 361.289062 C 258.710938 361.289062 262.039062 361.914062 264.953125 362.953125 C 267.863281 363.925781 270.84375 365.519531 273.273438 367.460938 C 275.699219 369.332031 277.984375 371.828125 279.71875 374.394531 C 281.453125 376.960938 282.769531 380.011719 283.601562 383.058594 C 284.363281 386.042969 284.710938 389.371094 284.503906 392.421875 C 284.296875 395.539062 283.53125 398.796875 282.355469 401.710938 C 281.175781 404.554688 279.441406 407.394531 277.429688 409.753906 C 275.351562 412.109375 272.785156 414.191406 270.082031 415.785156 C 267.449219 417.378906 264.328125 418.558594 261.277344 419.179688 C 258.226562 419.804688 254.898438 419.945312 251.847656 419.597656 C 248.730469 419.25 245.539062 418.28125 242.695312 416.964844 C 239.921875 415.644531 237.21875 413.703125 234.933594 411.554688 C 232.714844 409.40625 230.703125 406.703125 229.316406 403.929688 C 227.859375 401.226562 226.820312 398.035156 226.402344 394.984375 C 225.917969 391.867188 225.917969 388.539062 226.472656 385.488281 C 227.027344 382.4375 228.136719 379.316406 229.59375 376.542969 C 231.117188 373.839844 233.128906 371.203125 235.417969 369.054688 C 237.707031 366.976562 240.476562 365.105469 243.320312 363.855469 C 246.164062 362.609375 249.351562 361.707031 252.472656 361.429688 C 255.59375 361.152344 258.851562 361.359375 261.902344 362.054688 C 264.953125 362.746094 268.003906 363.996094 270.707031 365.660156 C 273.339844 367.253906 275.835938 369.472656 277.847656 371.828125 C 279.789062 374.253906 281.523438 377.097656 282.632812 380.011719 C 283.742188 382.921875 284.433594 386.179688 284.574219 389.300781 C 284.710938 392.421875 284.574219 394.777344 283.394531 398.660156 C 281.246094 406.214844 271.953125 421.121094 268.417969 429.996094 C 265.992188 436.304688 265.230469 442.546875 263.289062 446.496094 C 262.039062 448.992188 260.929688 450.378906 259.40625 452.113281 C 257.878906 453.777344 256.148438 455.304688 254.273438 456.621094 C 252.472656 457.867188 250.394531 458.90625 248.242188 459.738281 C 246.164062 460.503906 243.875 461.058594 241.65625 461.335938 C 239.4375 461.613281 237.082031 461.613281 234.863281 461.335938 C 232.644531 461.058594 230.355469 460.433594 228.277344 459.671875 C 226.125 458.839844 224.117188 457.730469 222.246094 456.480469 C 220.371094 455.164062 218.640625 453.640625 217.183594 451.976562 C 215.65625 450.242188 214.339844 448.371094 213.300781 446.359375 C 212.261719 444.347656 211.5 442.128906 210.945312 439.980469 C 210.390625 437.761719 210.113281 435.472656 210.113281 433.1875 C 210.179688 430.96875 211.011719 426.460938 211.011719 426.460938 " clip-rule="nonzero"/></clipPath><clipPath id="e28c1f716f"><path d="M 157.121094 394.695312 L 261.425781 394.695312 L 261.425781 523 L 157.121094 523 Z M 157.121094 394.695312 " clip-rule="nonzero"/></clipPath><clipPath id="df73fb2778"><path d="M 256.425781 433.1875 C 250.808594 447.191406 244.152344 459.046875 239.300781 467.714844 C 234.585938 476.03125 230.355469 484.144531 224.808594 491.839844 C 219.125 499.675781 205.882812 514.511719 205.535156 514.234375 C 205.257812 514.027344 216.835938 496.832031 217.667969 497.179688 C 218.152344 497.457031 216.628906 501.960938 215.726562 504.25 C 214.824219 506.46875 213.648438 508.617188 212.191406 510.558594 C 210.804688 512.5 209.070312 514.371094 207.269531 515.898438 C 205.398438 517.421875 203.316406 518.808594 201.167969 519.847656 C 199.019531 520.957031 196.660156 521.789062 194.304688 522.277344 C 191.945312 522.832031 189.449219 523.039062 187.09375 522.96875 C 184.667969 522.898438 182.171875 522.554688 179.882812 521.929688 C 177.527344 521.304688 175.238281 520.335938 173.160156 519.226562 C 171.078125 518.046875 169 516.589844 167.265625 514.925781 C 165.53125 513.261719 163.867188 511.390625 162.550781 509.378906 C 161.234375 507.371094 160.195312 505.082031 159.363281 502.863281 C 158.53125 500.574219 158.042969 498.148438 157.765625 495.722656 C 157.558594 493.367188 156.378906 491.007812 157.976562 488.511719 C 162.066406 481.855469 189.589844 473.535156 201.027344 465.910156 C 209.558594 460.15625 215.867188 451.074219 221.898438 448.507812 C 225.503906 446.914062 228.554688 447.261719 231.8125 447.398438 C 235.140625 447.539062 238.539062 448.300781 241.585938 449.546875 C 244.636719 450.726562 247.6875 452.53125 250.183594 454.679688 C 252.75 456.757812 254.96875 459.460938 256.703125 462.304688 C 258.433594 465.078125 259.753906 468.335938 260.445312 471.59375 C 261.140625 474.785156 261.347656 478.25 261 481.578125 C 260.652344 484.835938 259.753906 488.234375 258.367188 491.214844 C 256.980469 494.199219 255.039062 497.109375 252.75 499.535156 C 250.53125 501.894531 247.6875 504.042969 244.777344 505.566406 C 241.933594 507.164062 238.605469 508.269531 235.347656 508.824219 C 232.089844 509.378906 228.554688 509.378906 225.296875 508.824219 C 222.035156 508.339844 218.707031 507.230469 215.796875 505.707031 C 212.886719 504.113281 210.113281 502.03125 207.824219 499.605469 C 205.535156 497.246094 203.59375 494.335938 202.207031 491.355469 C 200.820312 488.375 199.851562 484.976562 199.503906 481.71875 C 199.089844 478.460938 199.296875 474.921875 199.988281 471.734375 C 200.683594 468.476562 202 465.21875 203.664062 462.445312 C 205.398438 459.601562 207.617188 456.898438 210.113281 454.75 C 212.675781 452.597656 215.65625 450.796875 218.707031 449.617188 C 221.757812 448.371094 225.226562 447.605469 228.484375 447.398438 C 231.742188 447.191406 235.277344 447.605469 238.46875 448.4375 C 241.585938 449.339844 244.777344 450.796875 247.550781 452.667969 C 250.253906 454.472656 252.820312 456.898438 254.828125 459.53125 C 256.839844 462.097656 258.503906 465.21875 259.542969 468.335938 C 260.585938 471.457031 261.140625 474.921875 261.207031 478.25 C 261.207031 481.511719 260.652344 484.976562 259.613281 488.097656 C 258.574219 491.214844 256.910156 494.335938 254.898438 496.96875 C 252.957031 499.605469 250.394531 502.03125 247.6875 503.835938 C 244.914062 505.707031 242.628906 506.398438 238.605469 508.0625 C 230.773438 511.320312 214.894531 519.226562 203.664062 521.027344 C 193.820312 522.554688 175.652344 522.761719 175.03125 519.988281 C 174.199219 516.453125 214.894531 494.960938 217.667969 497.179688 C 218.707031 498.078125 216.628906 501.960938 215.726562 504.25 C 214.824219 506.46875 213.648438 508.617188 212.191406 510.558594 C 210.804688 512.5 209.070312 514.371094 207.269531 515.898438 C 205.398438 517.421875 203.316406 518.808594 201.167969 519.847656 C 199.019531 520.957031 196.660156 521.789062 194.304688 522.277344 C 191.945312 522.832031 189.449219 523.039062 187.09375 522.96875 C 184.667969 522.898438 182.171875 522.554688 179.882812 521.929688 C 177.59375 521.304688 175.238281 520.335938 173.160156 519.226562 C 171.078125 518.046875 169 516.589844 167.265625 514.925781 C 165.53125 513.261719 163.867188 511.390625 162.550781 509.378906 C 161.234375 507.371094 160.195312 505.082031 159.363281 502.863281 C 158.597656 500.574219 158.042969 498.148438 157.765625 495.722656 C 157.558594 493.367188 156.933594 491.910156 157.976562 488.511719 C 161.441406 477.003906 193.195312 434.503906 200.890625 420.359375 C 204.21875 414.257812 205.050781 410.167969 207.269531 406.839844 C 208.726562 404.621094 210.113281 403.304688 211.777344 401.78125 C 213.4375 400.324219 215.378906 399.007812 217.390625 398.035156 C 219.402344 396.996094 221.550781 396.164062 223.769531 395.679688 C 225.917969 395.125 228.207031 394.847656 230.496094 394.914062 C 232.714844 394.914062 235 395.191406 237.21875 395.746094 C 239.367188 396.300781 241.519531 397.132812 243.527344 398.242188 C 245.46875 399.285156 247.410156 400.601562 249.074219 402.125 C 250.738281 403.652344 252.265625 405.382812 253.511719 407.257812 C 254.761719 409.058594 255.800781 411.140625 256.5625 413.21875 C 257.394531 415.367188 257.878906 417.585938 258.15625 419.875 C 258.433594 422.09375 258.367188 424.382812 258.089844 426.601562 C 257.8125 428.820312 256.425781 433.1875 256.425781 433.1875 " clip-rule="nonzero"/></clipPath><clipPath id="b02c279421"><path d="M 200.605469 278.710938 L 723.570312 278.710938 L 723.570312 521.515625 L 200.605469 521.515625 Z M 200.605469 278.710938 " clip-rule="nonzero"/></clipPath><clipPath id="4fbe92f7ee"><path d="M 200.613281 414.675781 C 201.097656 407.878906 201.097656 407.878906 201.097656 407.878906 C 201.097656 407.878906 202.207031 401.640625 203.039062 397.273438 C 204.355469 390.132812 207.617188 378.625 208.515625 369.261719 C 209.417969 359.972656 208.515625 349.15625 208.449219 341.253906 C 208.378906 335.5 208.101562 326.417969 208.101562 326.347656 C 208.101562 326.277344 208.378906 323.921875 208.585938 322.742188 C 208.726562 321.496094 209.003906 319.136719 209.003906 319.136719 C 209.003906 319.066406 209.835938 316.847656 210.320312 315.671875 C 210.734375 314.5625 211.566406 312.34375 211.566406 312.273438 C 211.636719 312.273438 212.953125 310.261719 213.648438 309.292969 C 214.339844 308.320312 215.65625 306.3125 215.726562 306.3125 C 215.726562 306.242188 217.53125 304.714844 218.429688 303.882812 C 219.332031 303.054688 221.136719 301.457031 221.203125 301.457031 C 221.203125 301.457031 223.355469 300.347656 224.394531 299.792969 C 225.503906 299.238281 227.582031 298.0625 227.652344 298.0625 C 227.652344 298.0625 230.007812 297.507812 231.1875 297.230469 C 232.367188 296.882812 234.65625 296.328125 234.722656 296.328125 C 234.722656 296.328125 237.152344 296.328125 238.328125 296.328125 C 239.578125 296.328125 241.933594 296.328125 242.003906 296.328125 C 242.074219 296.328125 244.359375 296.882812 245.539062 297.230469 C 246.71875 297.507812 249.007812 298.0625 249.074219 298.0625 C 249.144531 298.0625 251.433594 299.308594 252.265625 299.792969 C 252.820312 300.070312 253.097656 300.488281 253.582031 300.417969 C 254.273438 300.417969 255.175781 299.515625 256.078125 299.03125 C 257.046875 298.40625 259.265625 297.089844 259.335938 297.089844 C 259.335938 297.089844 261.761719 296.328125 262.941406 295.980469 C 264.191406 295.632812 266.546875 294.941406 266.617188 294.941406 C 266.683594 294.941406 269.113281 294.800781 270.429688 294.734375 C 271.675781 294.664062 274.171875 294.523438 274.171875 294.523438 C 274.242188 294.59375 276.667969 295.078125 277.917969 295.289062 C 279.164062 295.566406 281.589844 295.980469 281.660156 296.050781 C 281.730469 296.050781 283.949219 297.089844 285.128906 297.644531 C 286.238281 298.128906 288.523438 299.238281 288.523438 299.238281 C 288.59375 299.238281 290.535156 300.835938 291.503906 301.597656 C 292.476562 302.429688 294.417969 303.953125 294.488281 304.023438 C 294.488281 304.023438 296.011719 306.035156 296.773438 307.003906 C 297.539062 308.042969 299.0625 309.984375 299.0625 310.054688 C 299.132812 310.054688 299.6875 312.066406 300.101562 312.414062 C 300.3125 312.621094 300.519531 312.550781 300.796875 312.621094 C 301.558594 312.828125 304.539062 313.589844 304.539062 313.660156 C 304.609375 313.660156 306.828125 314.910156 307.9375 315.53125 C 309.117188 316.15625 311.335938 317.335938 311.335938 317.402344 C 311.402344 317.402344 313.277344 319.136719 314.175781 320.039062 C 315.148438 320.941406 317.019531 322.605469 317.019531 322.671875 C 317.089844 322.742188 318.476562 324.824219 319.167969 325.933594 C 319.863281 326.972656 321.25 329.121094 321.316406 329.191406 C 321.316406 329.191406 322.148438 331.617188 322.566406 332.796875 C 322.980469 334.042969 323.882812 336.402344 323.882812 336.46875 C 323.882812 336.539062 324.160156 339.242188 324.230469 340.351562 C 324.300781 341.046875 324.023438 342.085938 324.4375 342.222656 C 325.199219 342.570312 327.628906 338.6875 330.746094 337.371094 C 336.847656 334.804688 350.644531 334.25 360.421875 332.863281 C 370.125 331.476562 379.625 330.300781 389.125 328.914062 C 398.691406 327.527344 407.773438 326.210938 417.617188 324.613281 C 428.296875 322.949219 440.152344 320.941406 450.964844 319 C 461.367188 317.125 471.28125 314.910156 481.332031 313.175781 C 491.246094 311.371094 500.882812 309.640625 510.9375 308.390625 C 521.265625 307.003906 531.945312 306.519531 542.484375 305.339844 C 553.019531 304.09375 563.835938 303.121094 574.167969 300.972656 C 584.289062 298.894531 593.71875 294.941406 603.769531 292.722656 C 613.824219 290.503906 624.363281 289.601562 634.277344 287.871094 C 643.84375 286.207031 653.066406 284.125 662.355469 282.601562 C 671.507812 281.074219 689.601562 278.71875 689.742188 278.71875 C 689.808594 278.71875 692.445312 278.996094 693.832031 279.203125 C 695.148438 279.339844 697.785156 279.617188 697.851562 279.6875 C 697.921875 279.6875 700.347656 280.589844 701.664062 281.074219 C 702.914062 281.558594 705.410156 282.53125 705.410156 282.53125 C 705.480469 282.53125 707.628906 284.054688 708.808594 284.820312 C 709.917969 285.582031 712.066406 287.105469 712.132812 287.105469 C 712.132812 287.175781 713.9375 289.1875 714.839844 290.15625 C 715.738281 291.195312 717.472656 293.136719 717.542969 293.207031 C 717.542969 293.277344 718.789062 295.632812 719.414062 296.8125 C 720.039062 297.992188 721.285156 300.347656 721.285156 300.417969 C 721.285156 300.417969 721.980469 303.054688 722.257812 304.300781 C 722.605469 305.617188 723.226562 308.253906 723.226562 308.253906 C 723.226562 308.320312 723.226562 310.957031 723.226562 312.34375 C 723.226562 313.660156 723.296875 316.363281 723.226562 316.363281 C 723.226562 316.433594 722.605469 319 722.328125 320.316406 C 721.980469 321.632812 721.355469 324.199219 721.355469 324.269531 C 721.285156 324.335938 720.039062 326.695312 719.414062 327.875 C 718.789062 329.050781 717.613281 331.410156 717.542969 331.476562 C 717.542969 331.546875 715.738281 333.488281 714.90625 334.527344 C 714.007812 335.570312 712.203125 337.511719 712.203125 337.578125 C 712.132812 337.578125 709.984375 339.105469 708.875 339.867188 C 707.765625 340.628906 705.546875 342.15625 705.480469 342.15625 C 705.480469 342.222656 702.984375 343.125 701.734375 343.609375 C 700.417969 344.097656 697.992188 345.066406 697.921875 345.066406 C 697.851562 345.066406 695.21875 345.414062 693.902344 345.550781 C 692.515625 345.761719 689.878906 346.039062 689.878906 346.039062 C 689.601562 346.105469 666.652344 359.28125 664.921875 360.320312 C 664.710938 360.457031 664.644531 360.457031 664.574219 360.527344 C 664.503906 360.667969 664.503906 361.222656 664.503906 361.222656 C 664.433594 361.289062 663.535156 363.578125 663.046875 364.757812 C 662.5625 365.9375 661.660156 368.222656 661.660156 368.222656 C 661.59375 368.292969 660.136719 370.304688 659.445312 371.273438 C 658.679688 372.3125 657.226562 374.324219 657.226562 374.324219 C 657.15625 374.394531 655.285156 375.988281 654.3125 376.820312 C 653.410156 377.582031 651.539062 379.179688 651.46875 379.246094 C 651.402344 379.246094 649.183594 380.355469 648.074219 380.910156 C 646.964844 381.464844 644.675781 382.574219 644.675781 382.574219 C 644.46875 382.644531 628.3125 386.457031 625.332031 387.429688 C 624.429688 387.707031 624.152344 388.050781 623.597656 388.121094 C 623.042969 388.261719 622.628906 388.191406 622.144531 388.261719 C 621.589844 388.328125 621.105469 388.328125 620.410156 388.675781 C 619.164062 389.230469 617.777344 390.480469 615.558594 391.867188 C 610.632812 394.984375 599.75 401.292969 591.636719 406.285156 C 583.042969 411.484375 573.957031 416.894531 565.429688 422.441406 C 557.113281 427.917969 549.136719 433.671875 541.097656 439.21875 C 533.191406 444.625 525.496094 449.894531 517.664062 455.441406 C 509.6875 461.125 501.714844 467.4375 493.605469 472.980469 C 485.769531 478.320312 478.214844 483.171875 469.960938 488.164062 C 461.226562 493.433594 451.382812 498.425781 442.507812 503.488281 C 434.117188 508.273438 427.117188 514.925781 418.242188 517.699219 C 409.089844 520.542969 397.789062 522.691406 388.429688 520.128906 C 378.378906 517.285156 364.234375 508.480469 360.351562 499.605469 C 356.675781 491.285156 361.390625 476.03125 363.75 469.101562 C 365.136719 465.148438 370.058594 461.820312 369.226562 460.503906 C 368.324219 458.976562 362.015625 461.125 356.746094 461.472656 C 347.800781 462.027344 333.3125 465.839844 320.347656 463.34375 C 303.847656 460.15625 271.886719 450.242188 266.753906 438.386719 C 262.804688 428.957031 281.3125 409.265625 278.539062 403.582031 C 277.015625 400.394531 270.152344 402.058594 267.65625 399.5625 C 265.089844 397.066406 264.742188 388.539062 263.425781 388.605469 C 261.695312 388.746094 259.960938 402.820312 258.710938 408.367188 C 257.8125 412.457031 257.257812 415.855469 256.425781 418.90625 C 255.730469 421.398438 255.246094 423.339844 254.273438 425.421875 C 253.304688 427.433594 252.054688 429.375 250.671875 431.175781 C 249.285156 432.910156 247.550781 434.503906 245.816406 435.890625 C 244.015625 437.207031 242.003906 438.386719 239.921875 439.289062 C 237.84375 440.1875 235.625 440.8125 233.40625 441.230469 C 231.1875 441.574219 228.832031 441.714844 226.613281 441.507812 C 224.394531 441.367188 222.105469 440.882812 219.957031 440.1875 C 217.808594 439.496094 215.726562 438.457031 213.785156 437.277344 C 211.914062 436.097656 210.042969 434.640625 208.515625 432.976562 C 206.921875 431.382812 205.535156 429.511719 204.425781 427.570312 C 203.246094 425.628906 202.347656 423.480469 201.722656 421.332031 C 201.097656 419.179688 200.613281 414.675781 200.613281 414.675781 " clip-rule="nonzero"/></clipPath><clipPath id="4f07a8d798"><path d="M 297.324219 380.28125 L 564.414062 380.28125 L 564.414062 587 L 297.324219 587 Z M 297.324219 380.28125 " clip-rule="nonzero"/></clipPath><clipPath id="34a80a4325"><path d="M 343.433594 485.53125 C 336.570312 488.234375 355.082031 495.582031 359.933594 503.210938 C 364.996094 511.042969 370.472656 528.238281 366.523438 532.882812 C 362.5 537.527344 337.886719 535.242188 336.085938 531.011719 C 334.214844 526.78125 348.21875 515.414062 355.429688 507.785156 C 363.332031 499.398438 373.246094 490.453125 381.914062 482.964844 C 389.746094 476.242188 397.097656 470.554688 405 464.664062 C 412.902344 458.699219 421.015625 452.390625 429.472656 447.398438 C 437.65625 442.476562 445.351562 440.675781 454.847656 434.710938 C 468.992188 425.976562 503.726562 396.71875 504.144531 397.203125 C 504.210938 397.34375 501.023438 400.601562 500.882812 400.460938 C 500.675781 400.324219 504.421875 394.082031 506.847656 391.519531 C 509.203125 388.953125 512.183594 386.664062 515.304688 384.933594 C 518.425781 383.269531 521.960938 382.019531 525.425781 381.464844 C 528.964844 380.839844 532.707031 380.839844 536.171875 381.328125 C 539.710938 381.882812 543.246094 383.058594 546.363281 384.722656 C 549.554688 386.320312 552.535156 388.605469 554.960938 391.101562 C 557.457031 393.667969 559.605469 396.789062 561.0625 399.976562 C 562.589844 403.167969 563.628906 406.769531 564.042969 410.308594 C 564.460938 413.773438 564.320312 417.519531 563.558594 420.984375 C 562.867188 424.449219 561.480469 427.988281 559.675781 431.039062 C 557.875 434.019531 555.449219 436.929688 552.8125 439.21875 C 550.109375 441.574219 546.917969 443.515625 543.660156 444.832031 C 540.402344 446.21875 536.726562 447.050781 533.191406 447.261719 C 529.65625 447.46875 525.914062 447.121094 522.515625 446.152344 C 519.117188 445.25 515.652344 443.722656 512.738281 441.785156 C 509.757812 439.773438 507.054688 437.207031 504.835938 434.433594 C 502.6875 431.660156 500.882812 428.332031 499.773438 425.003906 C 498.597656 421.675781 497.972656 417.933594 497.902344 414.398438 C 497.902344 410.863281 498.457031 407.1875 499.566406 403.789062 C 500.675781 400.460938 502.410156 397.132812 504.558594 394.292969 C 506.640625 391.449219 509.34375 388.816406 512.253906 386.875 C 515.167969 384.863281 518.5625 383.199219 521.960938 382.226562 C 525.359375 381.257812 529.101562 380.839844 532.636719 380.980469 C 536.171875 381.1875 539.847656 381.949219 543.105469 383.199219 C 546.433594 384.515625 549.691406 386.386719 552.398438 388.675781 C 555.101562 390.964844 557.527344 393.804688 559.398438 396.789062 C 561.203125 399.839844 562.65625 403.304688 563.421875 406.769531 C 564.253906 410.167969 564.460938 413.914062 564.113281 417.449219 C 563.765625 420.984375 563.558594 424.035156 561.339844 427.847656 C 557.527344 434.296875 546.363281 442.960938 538.667969 450.171875 C 531.113281 457.242188 523.761719 464.109375 515.511719 470.554688 C 506.917969 477.351562 497.417969 484.214844 488.128906 489.828125 C 479.324219 495.238281 469.894531 498.773438 461.226562 503.835938 C 452.699219 508.757812 445.765625 512.917969 436.546875 519.851562 C 423.234375 529.832031 403.40625 549.246094 390.578125 559.785156 C 381.566406 567.203125 376.503906 573.582031 367.214844 577.878906 C 356.539062 582.800781 338.441406 589.597656 329.359375 585.78125 C 321.527344 582.457031 317.644531 570.183594 313.761719 561.449219 C 309.808594 552.644531 308.214844 542.589844 306.066406 533.023438 C 303.847656 523.59375 302.042969 514.09375 300.726562 504.457031 C 299.410156 494.890625 297.605469 484.90625 298.023438 475.339844 C 298.507812 466.050781 298.160156 455.371094 303.292969 448.023438 C 309.046875 439.773438 325.0625 432.285156 333.3125 429.996094 C 338.375 428.609375 342.878906 429.582031 346.484375 430.136719 C 349.050781 430.484375 350.851562 431.175781 352.933594 432.078125 C 354.941406 432.976562 356.953125 434.15625 358.6875 435.542969 C 360.488281 436.929688 362.085938 438.523438 363.472656 440.257812 C 364.859375 441.992188 366.105469 444 367.007812 446.011719 C 367.976562 448.023438 368.671875 450.242188 369.085938 452.460938 C 369.503906 454.609375 369.640625 456.964844 369.503906 459.183594 C 369.363281 461.402344 369.015625 463.691406 368.324219 465.839844 C 367.699219 467.921875 366.730469 470.070312 365.621094 471.941406 C 364.441406 473.882812 363.054688 475.6875 361.460938 477.28125 C 359.933594 478.875 358.132812 480.332031 356.191406 481.511719 C 354.320312 482.6875 352.171875 483.589844 350.089844 484.28125 C 347.941406 484.976562 343.433594 485.53125 343.433594 485.53125 " clip-rule="nonzero"/></clipPath><clipPath id="2cfc6e443f"><path d="M 306.367188 438 L 414.589844 438 L 414.589844 511.058594 L 306.367188 511.058594 Z M 306.367188 438 " clip-rule="nonzero"/></clipPath><clipPath id="4b72bf729d"><path d="M 326.65625 455.648438 C 374.839844 439.632812 377.476562 438.664062 381.011719 438.316406 C 384.269531 437.902344 387.460938 437.902344 390.511719 438.523438 C 393.558594 439.078125 396.679688 440.1875 399.382812 441.714844 C 402.089844 443.238281 404.722656 445.320312 406.800781 447.605469 C 408.882812 449.964844 410.683594 452.738281 411.933594 455.582031 C 413.179688 458.421875 413.945312 461.679688 414.222656 464.730469 C 414.5 467.851562 414.222656 471.179688 413.527344 474.160156 C 412.765625 477.210938 411.449219 480.261719 409.785156 482.894531 C 408.121094 485.53125 405.902344 488.027344 403.476562 489.96875 C 401.046875 491.910156 398.207031 493.574219 395.292969 494.613281 C 392.382812 495.722656 389.125 496.347656 386.003906 496.484375 C 382.882812 496.554688 379.625 496.136719 376.644531 495.238281 C 373.664062 494.335938 370.679688 492.878906 368.117188 491.078125 C 365.621094 489.207031 363.261719 486.917969 361.390625 484.351562 C 359.589844 481.855469 358.132812 478.875 357.160156 475.894531 C 356.261719 472.980469 355.773438 469.652344 355.84375 466.535156 C 355.914062 463.414062 356.539062 460.15625 357.648438 457.242188 C 358.6875 454.332031 360.28125 451.421875 362.222656 448.992188 C 364.164062 446.566406 366.660156 444.347656 369.292969 442.683594 C 371.859375 440.953125 374.910156 439.632812 377.960938 438.871094 C 380.941406 438.109375 384.269531 437.832031 387.390625 438.109375 C 390.441406 438.316406 393.699219 439.148438 396.542969 440.328125 C 399.382812 441.574219 402.226562 443.308594 404.515625 445.386719 C 406.871094 447.46875 408.953125 450.035156 410.476562 452.738281 C 412.003906 455.441406 413.179688 458.5625 413.804688 461.613281 C 414.359375 464.664062 414.5 467.992188 414.082031 471.109375 C 413.667969 474.160156 412.695312 477.351562 411.308594 480.125 C 409.992188 482.894531 408.050781 485.601562 405.832031 487.820312 C 403.683594 490.039062 402.15625 491.425781 398.207031 493.367188 C 388.429688 498.21875 352.726562 507.507812 343.226562 509.796875 C 339.96875 510.558594 338.789062 510.835938 336.5 510.976562 C 334.28125 511.113281 331.925781 510.976562 329.707031 510.558594 C 327.488281 510.144531 325.269531 509.378906 323.191406 508.480469 C 321.109375 507.507812 319.167969 506.332031 317.367188 504.875 C 315.632812 503.488281 313.96875 501.824219 312.582031 500.019531 C 311.195312 498.289062 310.015625 496.277344 309.117188 494.199219 C 308.144531 492.117188 307.453125 489.898438 307.105469 487.679688 C 306.6875 485.460938 306.550781 483.105469 306.6875 480.886719 C 306.898438 478.597656 307.3125 476.308594 308.007812 474.160156 C 308.628906 472.011719 309.671875 469.863281 310.847656 467.921875 C 312.027344 466.050781 313.414062 464.175781 315.078125 462.582031 C 316.671875 460.988281 318.476562 459.601562 320.417969 458.421875 C 322.359375 457.242188 326.65625 455.648438 326.65625 455.648438 " clip-rule="nonzero"/></clipPath><clipPath id="ad4e0c98db"><path d="M 86.601562 200.421875 L 140.976562 200.421875 L 140.976562 256.21875 L 86.601562 256.21875 Z M 86.601562 200.421875 " clip-rule="nonzero"/></clipPath><clipPath id="094afc73c1"><path d="M 140.917969 220.0625 C 140.988281 237.535156 138.910156 242.042969 136.273438 245.4375 C 133.640625 248.765625 129.757812 251.816406 125.875 253.621094 C 121.921875 255.351562 117.070312 256.253906 112.769531 255.976562 C 108.472656 255.769531 103.757812 254.242188 100.082031 252.027344 C 96.410156 249.808594 92.941406 246.339844 90.722656 242.664062 C 88.503906 238.992188 87.050781 234.277344 86.773438 229.976562 C 86.496094 225.679688 87.394531 220.828125 89.199219 216.945312 C 90.933594 212.992188 93.984375 209.109375 97.378906 206.476562 C 100.777344 203.839844 105.214844 201.828125 109.445312 201.066406 C 113.671875 200.234375 118.59375 200.582031 122.6875 201.828125 C 126.84375 203.148438 134.054688 208.695312 134.054688 208.695312 " clip-rule="nonzero"/></clipPath><clipPath id="5406877146"><path d="M 93.3125 203.65625 L 644.785156 203.65625 L 644.785156 351 L 93.3125 351 Z M 93.3125 203.65625 " clip-rule="nonzero"/></clipPath><clipPath id="625ea37efc"><path d="M 131.421875 205.574219 C 208.238281 233.582031 213.714844 238.644531 224.808594 243.773438 C 239.785156 250.707031 264.882812 257.085938 279.027344 264.714844 C 289.148438 270.121094 298.648438 274.003906 303.292969 282.046875 C 308.214844 290.503906 310.503906 306.726562 306.480469 315.117188 C 302.527344 323.226562 289.5625 330.023438 280.136719 331.894531 C 271.054688 333.765625 260.792969 329.535156 251.015625 327.042969 C 240.753906 324.476562 229.386719 321.425781 219.957031 316.433594 C 210.667969 311.582031 196.316406 305.339844 194.71875 297.574219 C 193.125 289.535156 210.527344 278.855469 211.359375 268.804688 C 212.121094 258.472656 206.230469 239.128906 198.949219 236.289062 C 191.53125 233.445312 167.957031 254.453125 166.78125 252.925781 C 165.671875 251.472656 180.367188 233.027344 189.867188 229.078125 C 199.503906 224.988281 211.636719 227.621094 224.464844 229.214844 C 241.171875 231.363281 265.507812 240.722656 281.3125 243.707031 C 292.335938 245.785156 299.824219 246.480469 309.808594 247.242188 C 320.695312 248.003906 333.171875 247.3125 343.988281 248.074219 C 353.695312 248.699219 360.699219 249.53125 371.652344 251.125 C 388.015625 253.410156 411.792969 258.679688 432.453125 261.730469 C 453.738281 264.78125 476.203125 267.140625 497.625 269.359375 C 518.425781 271.507812 542.34375 273.863281 558.984375 274.835938 C 570.421875 275.527344 578.117188 275.042969 587.964844 275.527344 C 598.15625 276.082031 612.230469 276.429688 619.023438 277.953125 C 622.488281 278.785156 624.292969 279.617188 626.648438 280.867188 C 629.078125 282.183594 631.363281 283.777344 633.375 285.582031 C 635.386719 287.316406 637.257812 289.464844 638.78125 291.683594 C 640.308594 293.902344 641.625 296.398438 642.597656 298.894531 C 643.566406 301.457031 644.191406 304.160156 644.539062 306.867188 C 644.882812 309.570312 644.816406 312.34375 644.539062 315.046875 C 644.191406 317.75 643.496094 320.453125 642.527344 322.949219 C 641.554688 325.515625 640.308594 328.011719 638.714844 330.230469 C 637.1875 332.449219 635.316406 334.527344 633.304688 336.332031 C 631.296875 338.132812 629.007812 339.730469 626.582031 340.976562 C 624.152344 342.222656 622.558594 342.917969 618.953125 343.820312 C 610.84375 345.898438 593.441406 348.046875 578.605469 349.226562 C 560.371094 350.683594 542.136719 350.683594 517.453125 350.890625 C 479.738281 351.238281 412.972656 349.296875 374.148438 349.367188 C 347.523438 349.367188 319.585938 351.238281 306.898438 350.265625 C 301.90625 349.921875 299.757812 349.710938 296.496094 348.601562 C 293.167969 347.492188 289.910156 345.761719 287.136719 343.609375 C 284.296875 341.53125 281.800781 338.828125 279.789062 335.914062 C 277.847656 333.003906 276.324219 329.675781 275.351562 326.277344 C 274.449219 322.949219 274.035156 319.277344 274.242188 315.742188 C 274.382812 312.273438 275.214844 308.667969 276.53125 305.410156 C 277.777344 302.152344 279.71875 298.960938 281.9375 296.328125 C 284.226562 293.691406 287.070312 291.265625 290.050781 289.464844 C 293.03125 287.660156 296.496094 286.273438 299.894531 285.582031 C 303.292969 284.820312 307.035156 284.609375 310.503906 284.957031 C 313.96875 285.375 317.503906 286.34375 320.695312 287.800781 C 323.882812 289.257812 326.933594 291.335938 329.429688 293.761719 C 331.996094 296.1875 334.214844 299.101562 335.878906 302.222656 C 337.472656 305.269531 338.71875 308.808594 339.273438 312.273438 C 339.828125 315.671875 339.828125 319.414062 339.273438 322.8125 C 338.71875 326.277344 337.472656 329.8125 335.878906 332.863281 C 334.214844 335.984375 331.996094 338.898438 329.429688 341.324219 C 326.933594 343.75 323.8125 345.828125 320.695312 347.285156 C 317.503906 348.742188 313.898438 349.710938 310.433594 350.128906 C 306.964844 350.476562 303.292969 350.265625 299.894531 349.503906 C 296.496094 348.8125 293.03125 347.425781 290.050781 345.621094 C 287.070312 343.820312 284.226562 341.394531 281.9375 338.757812 C 279.71875 336.054688 277.777344 332.863281 276.53125 329.675781 C 275.214844 326.417969 274.382812 322.8125 274.242188 319.277344 C 274.035156 315.808594 274.449219 312.136719 275.351562 308.738281 C 276.324219 305.410156 277.847656 302.011719 279.789062 299.171875 C 281.800781 296.257812 284.363281 293.554688 287.136719 291.472656 C 289.910156 289.324219 293.167969 287.59375 296.496094 286.484375 C 299.757812 285.375 301.210938 285.234375 306.898438 284.820312 C 332.410156 282.667969 467.882812 285.304688 516.898438 284.054688 C 543.316406 283.363281 560.648438 282.667969 577.839844 281.144531 C 590.527344 280.035156 603.5625 276.984375 610.910156 276.984375 C 614.515625 276.984375 616.390625 277.332031 619.023438 277.953125 C 621.660156 278.648438 624.292969 279.617188 626.648438 280.867188 C 629.078125 282.183594 631.363281 283.777344 633.375 285.582031 C 635.386719 287.316406 637.257812 289.464844 638.78125 291.683594 C 640.308594 293.902344 641.625 296.398438 642.597656 298.894531 C 643.566406 301.457031 644.191406 304.160156 644.539062 306.867188 C 644.882812 309.570312 644.816406 312.34375 644.539062 315.046875 C 644.191406 317.75 643.496094 320.453125 642.527344 322.949219 C 641.554688 325.515625 640.308594 328.011719 638.714844 330.230469 C 637.1875 332.449219 635.316406 334.527344 633.304688 336.332031 C 631.296875 338.132812 629.007812 339.730469 626.582031 340.976562 C 624.152344 342.222656 621.589844 343.195312 618.953125 343.820312 C 616.320312 344.511719 614.585938 344.652344 610.84375 344.789062 C 602.175781 345.136719 584.84375 344.304688 568.273438 343.265625 C 544.839844 341.738281 509.480469 338.273438 483.691406 335.570312 C 461.710938 333.210938 442.921875 331.269531 422.886719 328.289062 C 403.199219 325.308594 380.871094 319.96875 364.511719 317.613281 C 352.726562 315.878906 344.058594 314.769531 334.074219 314.214844 C 324.4375 313.589844 315.214844 314.632812 305.578125 314.007812 C 295.457031 313.382812 284.851562 311.996094 274.726562 310.125 C 264.675781 308.253906 254.273438 306.726562 245.191406 302.984375 C 236.320312 299.308594 229.730469 289.117188 220.648438 288.007812 C 210.527344 286.761719 197.492188 298.824219 187.023438 298.617188 C 177.664062 298.40625 167.125 295.566406 160.609375 289.1875 C 153.261719 281.90625 145.496094 264.296875 147.574219 254.730469 C 149.515625 246.0625 160.539062 237.1875 169.414062 233.515625 C 178.425781 229.699219 191.390625 230.601562 201.304688 232.820312 C 210.804688 234.902344 219.195312 241.210938 227.722656 245.855469 C 236.042969 250.429688 243.390625 255.976562 251.917969 260.277344 C 260.792969 264.714844 279.441406 267.347656 279.859375 272.0625 C 280.273438 276.707031 258.988281 280.3125 254.828125 288.214844 C 250.324219 296.8125 261.695312 319.207031 255.9375 323.019531 C 248.589844 328.011719 217.597656 306.796875 203.523438 299.585938 C 193.609375 294.457031 187.300781 289.464844 178.703125 285.027344 C 170.039062 280.589844 161.648438 276.914062 151.734375 272.894531 C 139.878906 268.039062 119.566406 261.59375 112.214844 258.402344 C 109.304688 257.15625 108.058594 256.601562 106.183594 255.351562 C 104.3125 254.105469 102.578125 252.578125 101.054688 250.917969 C 99.527344 249.253906 98.210938 247.378906 97.101562 245.371094 C 96.0625 243.429688 95.230469 241.277344 94.675781 239.128906 C 94.050781 236.910156 93.773438 234.625 93.707031 232.40625 C 93.707031 230.117188 93.984375 227.828125 94.46875 225.679688 C 94.953125 223.460938 95.785156 221.3125 96.757812 219.300781 C 97.796875 217.289062 99.113281 215.347656 100.570312 213.6875 C 102.023438 211.953125 103.757812 210.425781 105.5625 209.109375 C 107.363281 207.792969 109.445312 206.683594 111.523438 205.851562 C 113.601562 205.019531 115.820312 204.464844 118.039062 204.1875 C 120.257812 203.839844 122.617188 203.839844 124.835938 204.046875 C 127.054688 204.324219 131.421875 205.574219 131.421875 205.574219 " clip-rule="nonzero"/></clipPath><clipPath id="e97d825271"><path d="M 30.613281 177.09375 L 779 177.09375 L 779 632 L 30.613281 632 Z M 30.613281 177.09375 " clip-rule="nonzero"/></clipPath></defs><g clip-path="url(#18e1b0bf88)"><g clip-path="url(#7a34efd0f6)"><path fill="#fac8c8" d="M 199.15625 424.589844 L 330.210938 424.589844 L 330.210938 499.8125 L 199.15625 499.8125 Z M 199.15625 424.589844 " fill-opacity="1" fill-rule="nonzero"/></g></g><g clip-path="url(#1015a364e1)"><g clip-path="url(#be7362b293)"><path fill="#fac8c8" d="M 206.644531 372.246094 L 306.066406 372.246094 L 306.066406 480.597656 L 206.644531 480.597656 Z M 206.644531 372.246094 " fill-opacity="1" fill-rule="nonzero"/></g></g><g clip-path="url(#3ce4ffda4a)"><g clip-path="url(#2f0335646f)"><path fill="#fac8c8" d="M 207.339844 358.515625 L 287.347656 358.515625 L 287.347656 464.152344 L 207.339844 464.152344 Z M 207.339844 358.515625 " fill-opacity="1" fill-rule="nonzero"/></g></g><g clip-path="url(#e28c1f716f)"><g clip-path="url(#df73fb2778)"><path fill="#fac8c8" d="M 154.992188 392.144531 L 263.980469 392.144531 L 263.980469 525.824219 L 154.992188 525.824219 Z M 154.992188 392.144531 " fill-opacity="1" fill-rule="nonzero"/></g></g><g clip-path="url(#b02c279421)"><g clip-path="url(#4fbe92f7ee)"><path fill="#fac8c8" d="M 197.839844 275.945312 L 726.339844 275.945312 L 726.339844 522.898438 L 197.839844 522.898438 Z M 197.839844 275.945312 " fill-opacity="1" fill-rule="nonzero"/></g></g><g clip-path="url(#4f07a8d798)"><g clip-path="url(#34a80a4325)"><path fill="#fac8c8" d="M 295.25 378.207031 L 567.179688 378.207031 L 567.179688 588.554688 L 295.25 588.554688 Z M 295.25 378.207031 " fill-opacity="1" fill-rule="nonzero"/></g></g><g clip-path="url(#2cfc6e443f)"><g clip-path="url(#4b72bf729d)"><path fill="#fac8c8" d="M 303.914062 435.335938 L 417.039062 435.335938 L 417.039062 513.816406 L 303.914062 513.816406 Z M 303.914062 435.335938 " fill-opacity="1" fill-rule="nonzero"/></g></g><g clip-path="url(#ad4e0c98db)"><g clip-path="url(#094afc73c1)"><path fill="#fac8c8" d="M 84 198.292969 L 144.523438 198.292969 L 144.523438 258.820312 L 84 258.820312 Z M 84 198.292969 " fill-opacity="1" fill-rule="nonzero"/></g></g><g clip-path="url(#5406877146)"><g clip-path="url(#625ea37efc)"><path fill="#fac8c8" d="M 90.933594 201.273438 L 647.164062 201.273438 L 647.164062 353.734375 L 90.933594 353.734375 Z M 90.933594 201.273438 " fill-opacity="1" fill-rule="nonzero"/></g></g><g clip-path="url(#e97d825271)"><path fill="#4d4c4d" d="M 771.742188 288.09375 C 766.578125 287.121094 761.375 286.453125 756.132812 286.097656 C 741.535156 282.363281 726.710938 280.242188 711.65625 279.738281 C 700.617188 277.292969 689.484375 275.417969 678.253906 274.105469 C 634.140625 267.382812 589.300781 266.292969 544.828125 262.84375 C 460.777344 256.484375 375.820312 240.496094 292.3125 228.144531 C 254.554688 222.511719 217.523438 213.425781 179.761719 207.976562 C 159.613281 205.253906 139.824219 200.347656 120.21875 196.351562 C 97.347656 191.261719 74.292969 186.722656 51.78125 182.179688 C 48.601562 180.3125 45.335938 178.617188 41.980469 177.09375 C 41.484375 176.90625 40.972656 176.804688 40.445312 176.785156 C 39.917969 176.765625 39.402344 176.828125 38.894531 176.976562 C 38.386719 177.125 37.917969 177.347656 37.480469 177.644531 C 37.046875 177.945312 36.671875 178.304688 36.351562 178.726562 L 34.71875 178.726562 C 34.210938 178.726562 33.726562 178.824219 33.257812 179.019531 C 32.792969 179.210938 32.378906 179.488281 32.023438 179.84375 C 31.664062 180.203125 31.390625 180.617188 31.195312 181.082031 C 31.003906 181.550781 30.90625 182.039062 30.90625 182.542969 C 32.175781 200.710938 51.78125 215.425781 64.308594 226.507812 C 71.933594 233.230469 80.644531 244.675781 90.265625 253.214844 L 92.265625 255.210938 C 121.082031 278.683594 151.335938 300.121094 183.03125 319.523438 C 209.714844 337.691406 174.679688 408.726562 166.511719 435.796875 C 156.484375 462.683594 149.222656 490.296875 144.726562 518.640625 C 143.636719 521.546875 142.367188 524.453125 141.277344 527.359375 C 141.160156 527.808594 141.074219 528.265625 141.015625 528.726562 C 140.957031 529.1875 140.929688 529.652344 140.929688 530.117188 C 140.933594 530.585938 140.964844 531.046875 141.027344 531.507812 C 141.089844 531.96875 141.183594 532.425781 141.304688 532.875 C 141.425781 533.324219 141.574219 533.765625 141.753906 534.195312 C 141.933594 534.625 142.140625 535.039062 142.375 535.441406 C 142.605469 535.84375 142.863281 536.230469 143.148438 536.601562 C 143.433594 536.96875 143.738281 537.320312 144.066406 537.648438 C 144.394531 537.976562 144.746094 538.285156 145.113281 538.566406 C 145.484375 538.851562 145.867188 539.109375 146.269531 539.34375 C 146.671875 539.578125 147.089844 539.78125 147.519531 539.960938 C 147.949219 540.140625 148.386719 540.292969 148.835938 540.414062 C 149.285156 540.535156 149.742188 540.628906 150.203125 540.691406 C 150.664062 540.753906 151.125 540.785156 151.589844 540.789062 C 152.054688 540.789062 152.519531 540.761719 152.980469 540.703125 C 153.441406 540.644531 153.898438 540.558594 154.347656 540.4375 C 181.578125 532.265625 208.808594 523.363281 235.675781 514.460938 C 240.578125 514.460938 245.476562 512.460938 250.5625 511.917969 C 255.644531 511.371094 260.363281 511.917969 265.265625 510.828125 C 266.535156 511.09375 267.808594 511.09375 269.078125 510.828125 C 274.867188 510.695312 280.613281 510.148438 286.324219 509.191406 C 291.949219 528.265625 298.304688 547.523438 304.476562 566.238281 C 309.097656 584.734375 311.035156 603.503906 310.285156 622.554688 C 310.261719 623.121094 310.3125 623.679688 310.4375 624.230469 C 310.566406 624.785156 310.765625 625.308594 311.039062 625.804688 C 311.3125 626.300781 311.644531 626.753906 312.042969 627.15625 C 312.4375 627.5625 312.882812 627.90625 313.371094 628.1875 C 313.613281 628.632812 313.902344 629.042969 314.234375 629.421875 C 314.570312 629.800781 314.941406 630.136719 315.351562 630.429688 C 315.761719 630.726562 316.199219 630.96875 316.664062 631.164062 C 317.128906 631.363281 317.609375 631.503906 318.109375 631.589844 C 318.605469 631.679688 319.105469 631.707031 319.609375 631.683594 C 320.113281 631.65625 320.609375 631.574219 321.09375 631.4375 C 321.582031 631.300781 322.042969 631.113281 322.488281 630.871094 C 322.929688 630.628906 323.339844 630.339844 323.71875 630.003906 C 338.785156 617.46875 352.765625 603.296875 368.558594 591.671875 L 370.191406 590.398438 C 479.476562 522.273438 573.871094 436.886719 677.347656 363.308594 C 687.332031 356.769531 697.132812 350.046875 707.480469 343.867188 C 724.542969 333.695312 742.152344 324.25 758.128906 312.621094 L 773.738281 304.265625 C 774.480469 303.820312 775.144531 303.28125 775.726562 302.648438 C 776.3125 302.011719 776.792969 301.308594 777.171875 300.53125 C 777.550781 299.753906 777.8125 298.941406 777.953125 298.089844 C 778.097656 297.238281 778.117188 296.386719 778.007812 295.527344 C 777.902344 294.671875 777.679688 293.847656 777.332031 293.054688 C 776.988281 292.265625 776.535156 291.539062 775.980469 290.878906 C 775.421875 290.21875 774.785156 289.652344 774.0625 289.179688 C 773.34375 288.707031 772.570312 288.34375 771.742188 288.09375 Z M 138.738281 261.570312 C 120.5 248.15625 104.40625 232.53125 90.449219 214.699219 C 114.046875 217.96875 137.101562 224.507812 160.882812 228.6875 C 197.191406 235.226562 233.496094 240.316406 269.804688 246.855469 C 349.316406 262.296875 430.640625 269.382812 510.699219 280.828125 C 543.191406 285.550781 575.503906 287.1875 608.183594 289.367188 C 616.714844 289.367188 632.6875 289.367188 650.117188 290.640625 C 637.347656 291.035156 624.640625 292.125 611.992188 293.910156 C 610.542969 293.910156 610.90625 296.453125 611.992188 296.453125 L 669.359375 296.453125 C 674.21875 296.554688 679.058594 296.917969 683.882812 297.542969 C 620.34375 302.265625 556.808594 309.351562 493.453125 315.710938 C 468.765625 318.070312 443.710938 319.886719 418.296875 321.703125 L 418.296875 319.886719 C 414.546875 319.617188 410.792969 319.617188 407.042969 319.886719 C 406.136719 319.886719 405.953125 321.523438 407.042969 321.523438 L 412.125 321.523438 C 388.707031 323.15625 365.109375 324.976562 341.691406 327.335938 C 341.691406 325.339844 341.691406 322.613281 338.785156 322.792969 C 295.945312 325.882812 254.191406 311.53125 211.714844 311.53125 C 194.285156 291.730469 159.25 275.558594 138.738281 261.570312 Z M 219.699219 370.574219 L 219.699219 371.847656 C 215.46875 372.722656 211.292969 373.8125 207.175781 375.117188 L 208.082031 372.027344 C 211.914062 371.792969 215.726562 371.367188 219.519531 370.757812 Z M 208.808594 367.851562 L 211.167969 359.855469 L 222.785156 360.765625 L 221.878906 364.035156 C 217.601562 365.582031 213.246094 366.855469 208.808594 367.851562 Z M 212.4375 439.246094 C 213.164062 439.523438 213.890625 439.523438 214.617188 439.246094 C 233.09375 435.59375 250.523438 429.117188 266.898438 419.808594 L 268.714844 429.253906 C 246.117188 434.800781 224.335938 442.613281 203.363281 452.691406 Z M 218.429688 431.070312 L 234.769531 408.90625 C 239.488281 409.339844 244.148438 408.976562 248.746094 407.816406 C 243.664062 409.453125 238.582031 411.269531 233.316406 412.542969 C 231.320312 412.542969 231.683594 416.355469 233.316406 416.175781 C 243.480469 415.085938 254.375 414.902344 264.539062 412.90625 L 264.539062 416.902344 C 249.160156 420.773438 234.09375 425.621094 219.335938 431.433594 Z M 243.117188 398.007812 L 244.570312 396.007812 L 246.566406 396.007812 Z M 246.203125 402.550781 C 243.21875 403.273438 240.3125 404.242188 237.492188 405.457031 L 240.03125 402.1875 Z M 234.585938 380.566406 C 237.492188 372.9375 240.214844 365.125 242.390625 357.132812 L 244.390625 354.585938 L 250.378906 354.585938 C 250.320312 355.011719 250.320312 355.433594 250.378906 355.859375 C 244.203125 363.390625 239.179688 371.625 235.3125 380.566406 Z M 240.757812 337.511719 C 231.320312 337.511719 226.960938 346.230469 223.875 355.675781 C 219.882812 355.175781 215.886719 355.175781 211.894531 355.675781 C 215.039062 348.824219 217.519531 341.738281 219.335938 334.421875 C 247.113281 333.148438 274.707031 334.421875 302.296875 334.421875 L 280.152344 338.238281 C 267.28125 337.082031 254.390625 336.839844 241.484375 337.511719 Z M 193.015625 465.773438 L 193.015625 464.683594 C 218.25 454.507812 242.753906 442.152344 268.351562 432.34375 L 270.53125 444.335938 C 245.195312 451.273438 220.386719 459.75 196.101562 469.769531 L 188.476562 472.3125 Z M 242.753906 489.570312 C 218.550781 497.6875 194.347656 505.558594 170.140625 513.1875 L 172.683594 507.375 C 199.886719 492.761719 228.328125 481.195312 258.003906 472.675781 Z M 255.28125 485.390625 L 254.375 485.390625 C 258.730469 479.941406 262.90625 474.308594 266.71875 468.316406 L 269.441406 467.226562 C 264.539062 473.402344 260 479.398438 255.460938 485.9375 Z M 264.902344 463.773438 C 235.085938 471.316406 206.222656 481.550781 178.3125 494.476562 L 183.9375 483.210938 C 191.5625 480.125 202.09375 476.492188 204.816406 475.402344 C 227.144531 465.589844 249.109375 455.234375 272.164062 447.242188 L 273.253906 452.691406 C 270.53125 456.6875 267.808594 460.320312 265.082031 463.773438 Z M 273.796875 456.871094 L 273.796875 460.320312 L 270.53125 461.59375 Z M 270.53125 480.488281 C 272.828125 477.21875 274.945312 473.824219 276.882812 470.3125 L 276.882812 472.492188 Z M 692.957031 322.429688 C 693.058594 322.15625 693.085938 321.875 693.035156 321.585938 C 692.988281 321.296875 692.867188 321.039062 692.679688 320.816406 C 692.492188 320.589844 692.261719 320.425781 691.988281 320.324219 C 691.710938 320.226562 691.429688 320.199219 691.140625 320.25 C 687.527344 321.476562 683.835938 322.382812 680.070312 322.976562 C 673.171875 329.335938 688.78125 324.976562 692.050781 324.066406 C 570.058594 406.363281 464.042969 509.738281 337.695312 584.769531 C 321.375 544.648438 307.457031 503.710938 295.945312 461.957031 C 285.960938 428.527344 283.601562 385.289062 264.902344 355.3125 C 340.601562 357.675781 419.570312 344.050781 494.359375 337.148438 C 551.179688 332.421875 608 328.246094 664.636719 322.613281 C 601.464844 337.511719 536.65625 342.234375 474.027344 358.949219 L 474.027344 360.402344 C 537.746094 347.320312 604.007812 342.234375 666.273438 324.066406 C 667.179688 324.066406 666.273438 322.792969 666.273438 322.613281 L 698.039062 319.160156 Z M 692.957031 322.429688 " fill-opacity="1" fill-rule="nonzero"/></g><path fill="#4d4c4d" d="M 368.921875 535.714844 C 364.019531 531.175781 358.574219 527.175781 353.128906 523.179688 C 352.21875 523.179688 350.949219 523.179688 351.855469 524.816406 C 356.757812 529.355469 361.660156 534.082031 367.105469 538.078125 C 368.375 538.984375 370.011719 536.804688 368.921875 535.714844 Z M 368.921875 535.714844 " fill-opacity="1" fill-rule="nonzero"/><path fill="#4d4c4d" d="M 361.296875 546.980469 C 356.265625 542.480469 350.941406 538.363281 345.320312 534.625 C 344.050781 534.625 342.78125 535.535156 343.871094 536.625 C 348.402344 541.382812 353.242188 545.804688 358.390625 549.886719 C 360.390625 551.523438 363.476562 548.796875 361.296875 546.980469 Z M 361.296875 546.980469 " fill-opacity="1" fill-rule="nonzero"/><path fill="#4d4c4d" d="M 406.5 366.03125 L 386.53125 367.488281 C 385.441406 367.488281 385.441406 369.304688 386.53125 369.121094 L 406.5 366.941406 C 406.5 366.941406 407.222656 366.03125 406.5 366.03125 Z M 406.5 366.03125 " fill-opacity="1" fill-rule="nonzero"/><path fill="#4d4c4d" d="M 187.023438 240.679688 C 175.535156 238.1875 163.914062 236.671875 152.171875 236.136719 C 150.898438 236.136719 151.082031 237.773438 152.171875 237.953125 C 163.789062 239.226562 175.226562 241.769531 186.84375 243.222656 C 188.113281 243.585938 188.476562 241.042969 187.023438 240.679688 Z M 187.023438 240.679688 " fill-opacity="1" fill-rule="nonzero"/><path fill="#4d4c4d" d="M 347.863281 267.929688 C 336.425781 265.929688 324.808594 265.023438 313.371094 263.023438 C 312.464844 263.023438 311.917969 264.296875 313.371094 264.476562 C 324.808594 266.476562 336.425781 267.382812 347.863281 269.382812 C 348.40625 270.472656 348.769531 269.019531 347.863281 267.929688 Z M 347.863281 267.929688 " fill-opacity="1" fill-rule="nonzero"/><path fill="#4d4c4d" d="M 564.25 291.003906 C 512.152344 288.820312 460.59375 283.917969 408.675781 279.375 L 408.675781 280.464844 C 460.257812 288.070312 512.117188 292.191406 564.25 292.820312 C 564.5 292.820312 564.714844 292.730469 564.890625 292.550781 C 565.070312 292.375 565.160156 292.160156 565.160156 291.910156 C 565.160156 291.660156 565.070312 291.445312 564.890625 291.269531 C 564.714844 291.089844 564.5 291.003906 564.25 291.003906 Z M 564.25 291.003906 " fill-opacity="1" fill-rule="nonzero"/></svg>