<svg xmlns="http://www.w3.org/2000/svg" xmlns:xlink="http://www.w3.org/1999/xlink" width="1080" zoomAndPan="magnify" viewBox="0 0 810 809.999993" height="1080" preserveAspectRatio="xMidYMid meet" version="1.0"><defs><clipPath id="e0a67670ac"><path d="M 30.613281 177.09375 L 779 177.09375 L 779 632 L 30.613281 632 Z M 30.613281 177.09375 " clip-rule="nonzero"/></clipPath></defs><g clip-path="url(#e0a67670ac)"><path fill="#4d4c4d" d="M 771.742188 288.09375 C 766.578125 287.121094 761.375 286.453125 756.132812 286.097656 C 741.535156 282.363281 726.710938 280.242188 711.65625 279.738281 C 700.617188 277.292969 689.484375 275.417969 678.253906 274.105469 C 634.140625 267.382812 589.300781 266.292969 544.828125 262.84375 C 460.777344 256.484375 375.820312 240.496094 292.3125 228.144531 C 254.554688 222.511719 217.523438 213.425781 179.761719 207.976562 C 159.613281 205.253906 139.824219 200.347656 120.21875 196.351562 C 97.347656 191.261719 74.292969 186.722656 51.78125 182.179688 C 48.601562 180.3125 45.335938 178.617188 41.980469 177.09375 C 41.484375 176.90625 40.972656 176.804688 40.445312 176.785156 C 39.917969 176.765625 39.402344 176.828125 38.894531 176.976562 C 38.386719 177.125 37.917969 177.347656 37.480469 177.644531 C 37.046875 177.945312 36.671875 178.304688 36.351562 178.726562 L 34.71875 178.726562 C 34.210938 178.726562 33.726562 178.824219 33.257812 179.019531 C 32.792969 179.210938 32.378906 179.488281 32.023438 179.84375 C 31.664062 180.203125 31.390625 180.617188 31.195312 181.082031 C 31.003906 181.550781 30.90625 182.035156 30.90625 182.542969 C 32.175781 200.710938 51.78125 215.425781 64.308594 226.507812 C 71.933594 233.230469 80.644531 244.675781 90.265625 253.214844 L 92.265625 255.210938 C 121.082031 278.683594 151.335938 300.121094 183.03125 319.523438 C 209.714844 337.691406 174.679688 408.726562 166.511719 435.796875 C 156.484375 462.683594 149.222656 490.296875 144.726562 518.636719 C 143.636719 521.546875 142.367188 524.453125 141.277344 527.359375 C 141.160156 527.808594 141.074219 528.265625 141.015625 528.726562 C 140.957031 529.1875 140.929688 529.652344 140.929688 530.117188 C 140.933594 530.585938 140.964844 531.046875 141.027344 531.507812 C 141.089844 531.96875 141.183594 532.425781 141.304688 532.875 C 141.425781 533.324219 141.574219 533.765625 141.753906 534.195312 C 141.933594 534.625 142.140625 535.039062 142.375 535.441406 C 142.605469 535.84375 142.863281 536.230469 143.148438 536.601562 C 143.433594 536.96875 143.738281 537.320312 144.066406 537.648438 C 144.394531 537.976562 144.746094 538.285156 145.113281 538.566406 C 145.484375 538.851562 145.867188 539.109375 146.269531 539.34375 C 146.671875 539.578125 147.089844 539.78125 147.519531 539.960938 C 147.949219 540.140625 148.386719 540.292969 148.835938 540.414062 C 149.285156 540.535156 149.742188 540.628906 150.203125 540.691406 C 150.664062 540.753906 151.125 540.785156 151.589844 540.789062 C 152.054688 540.789062 152.519531 540.761719 152.980469 540.703125 C 153.441406 540.644531 153.898438 540.558594 154.347656 540.4375 C 181.578125 532.265625 208.808594 523.363281 235.675781 514.460938 C 240.578125 514.460938 245.476562 512.460938 250.5625 511.917969 C 255.644531 511.371094 260.363281 511.917969 265.265625 510.828125 C 266.535156 511.09375 267.808594 511.09375 269.078125 510.828125 C 274.867188 510.695312 280.613281 510.148438 286.324219 509.191406 C 291.949219 528.265625 298.304688 547.523438 304.476562 566.238281 C 309.097656 584.734375 311.035156 603.503906 310.285156 622.554688 C 310.261719 623.121094 310.3125 623.679688 310.4375 624.230469 C 310.566406 624.785156 310.765625 625.308594 311.039062 625.804688 C 311.3125 626.300781 311.644531 626.753906 312.042969 627.15625 C 312.4375 627.5625 312.882812 627.90625 313.371094 628.1875 C 313.613281 628.632812 313.902344 629.042969 314.234375 629.421875 C 314.570312 629.800781 314.941406 630.136719 315.351562 630.429688 C 315.761719 630.726562 316.199219 630.96875 316.664062 631.164062 C 317.128906 631.363281 317.609375 631.503906 318.109375 631.589844 C 318.605469 631.679688 319.105469 631.707031 319.609375 631.683594 C 320.113281 631.65625 320.609375 631.574219 321.09375 631.4375 C 321.582031 631.300781 322.042969 631.113281 322.488281 630.871094 C 322.929688 630.628906 323.339844 630.339844 323.71875 630.003906 C 338.785156 617.46875 352.765625 603.296875 368.558594 591.671875 L 370.191406 590.398438 C 479.476562 522.273438 573.871094 436.886719 677.347656 363.308594 C 687.332031 356.769531 697.132812 350.046875 707.480469 343.867188 C 724.542969 333.695312 742.152344 324.25 758.128906 312.621094 L 773.738281 304.265625 C 774.480469 303.820312 775.144531 303.28125 775.726562 302.648438 C 776.3125 302.011719 776.792969 301.308594 777.171875 300.53125 C 777.550781 299.753906 777.8125 298.941406 777.953125 298.089844 C 778.097656 297.238281 778.117188 296.386719 778.007812 295.527344 C 777.902344 294.671875 777.679688 293.847656 777.332031 293.054688 C 776.988281 292.265625 776.535156 291.539062 775.980469 290.878906 C 775.421875 290.21875 774.785156 289.652344 774.0625 289.179688 C 773.34375 288.707031 772.570312 288.34375 771.742188 288.09375 Z M 138.738281 261.570312 C 120.5 248.15625 104.40625 232.53125 90.449219 214.699219 C 114.046875 217.96875 137.101562 224.507812 160.882812 228.6875 C 197.191406 235.226562 233.496094 240.316406 269.804688 246.855469 C 349.316406 262.296875 430.640625 269.382812 510.699219 280.828125 C 543.191406 285.550781 575.503906 287.1875 608.183594 289.367188 C 616.714844 289.367188 632.6875 289.367188 650.117188 290.636719 C 637.347656 291.035156 624.640625 292.125 611.992188 293.910156 C 610.542969 293.910156 610.90625 296.453125 611.992188 296.453125 L 669.359375 296.453125 C 674.21875 296.554688 679.058594 296.917969 683.882812 297.542969 C 620.34375 302.265625 556.808594 309.351562 493.453125 315.710938 C 468.765625 318.070312 443.710938 319.886719 418.296875 321.703125 L 418.296875 319.886719 C 414.546875 319.617188 410.792969 319.617188 407.042969 319.886719 C 406.136719 319.886719 405.953125 321.523438 407.042969 321.523438 L 412.125 321.523438 C 388.707031 323.15625 365.109375 324.976562 341.691406 327.335938 C 341.691406 325.339844 341.691406 322.613281 338.785156 322.792969 C 295.945312 325.882812 254.191406 311.53125 211.714844 311.53125 C 194.285156 291.730469 159.25 275.558594 138.738281 261.570312 Z M 219.699219 370.574219 L 219.699219 371.847656 C 215.46875 372.722656 211.292969 373.8125 207.175781 375.117188 L 208.082031 372.027344 C 211.914062 371.792969 215.726562 371.367188 219.519531 370.757812 Z M 208.808594 367.851562 L 211.167969 359.855469 L 222.785156 360.765625 L 221.878906 364.035156 C 217.601562 365.582031 213.246094 366.855469 208.808594 367.851562 Z M 212.4375 439.246094 C 213.164062 439.523438 213.890625 439.523438 214.617188 439.246094 C 233.09375 435.59375 250.523438 429.117188 266.898438 419.808594 L 268.714844 429.253906 C 246.117188 434.800781 224.335938 442.613281 203.363281 452.691406 Z M 218.429688 431.070312 L 234.769531 408.90625 C 239.488281 409.339844 244.148438 408.976562 248.746094 407.816406 C 243.664062 409.453125 238.582031 411.269531 233.316406 412.542969 C 231.320312 412.542969 231.683594 416.355469 233.316406 416.175781 C 243.480469 415.085938 254.375 414.902344 264.539062 412.90625 L 264.539062 416.902344 C 249.160156 420.773438 234.09375 425.621094 219.335938 431.433594 Z M 243.117188 398.007812 L 244.570312 396.007812 L 246.566406 396.007812 Z M 246.203125 402.550781 C 243.21875 403.273438 240.3125 404.242188 237.492188 405.457031 L 240.03125 402.1875 Z M 234.585938 380.566406 C 237.492188 372.9375 240.214844 365.125 242.390625 357.132812 L 244.390625 354.585938 L 250.378906 354.585938 C 250.320312 355.011719 250.320312 355.433594 250.378906 355.859375 C 244.203125 363.390625 239.179688 371.625 235.3125 380.566406 Z M 240.757812 337.511719 C 231.320312 337.511719 226.960938 346.230469 223.875 355.675781 C 219.882812 355.175781 215.886719 355.175781 211.894531 355.675781 C 215.039062 348.824219 217.519531 341.738281 219.335938 334.421875 C 247.113281 333.148438 274.707031 334.421875 302.296875 334.421875 L 280.152344 338.238281 C 267.28125 337.082031 254.390625 336.839844 241.484375 337.511719 Z M 193.015625 465.773438 L 193.015625 464.683594 C 218.25 454.507812 242.753906 442.152344 268.351562 432.34375 L 270.53125 444.335938 C 245.195312 451.273438 220.386719 459.75 196.101562 469.769531 L 188.476562 472.3125 Z M 242.753906 489.570312 C 218.550781 497.6875 194.347656 505.558594 170.140625 513.1875 L 172.683594 507.375 C 199.886719 492.761719 228.328125 481.195312 258.003906 472.675781 Z M 255.28125 485.390625 L 254.375 485.390625 C 258.730469 479.941406 262.90625 474.308594 266.71875 468.316406 L 269.441406 467.226562 C 264.539062 473.402344 260 479.398438 255.460938 485.9375 Z M 264.902344 463.773438 C 235.085938 471.316406 206.222656 481.550781 178.3125 494.476562 L 183.9375 483.210938 C 191.5625 480.125 202.09375 476.492188 204.816406 475.398438 C 227.144531 465.589844 249.109375 455.234375 272.164062 447.242188 L 273.253906 452.691406 C 270.53125 456.6875 267.808594 460.320312 265.082031 463.773438 Z M 273.796875 456.871094 L 273.796875 460.320312 L 270.53125 461.59375 Z M 270.53125 480.488281 C 272.828125 477.21875 274.945312 473.824219 276.882812 470.3125 L 276.882812 472.492188 Z M 692.957031 322.429688 C 693.058594 322.15625 693.085938 321.875 693.035156 321.585938 C 692.988281 321.296875 692.867188 321.039062 692.679688 320.816406 C 692.492188 320.589844 692.261719 320.425781 691.988281 320.324219 C 691.710938 320.226562 691.429688 320.199219 691.140625 320.25 C 687.527344 321.476562 683.835938 322.382812 680.070312 322.976562 C 673.171875 329.335938 688.78125 324.976562 692.050781 324.066406 C 570.058594 406.363281 464.042969 509.738281 337.695312 584.769531 C 321.375 544.648438 307.457031 503.710938 295.945312 461.957031 C 285.960938 428.527344 283.601562 385.289062 264.902344 355.3125 C 340.601562 357.675781 419.570312 344.050781 494.359375 337.148438 C 551.179688 332.421875 608 328.246094 664.636719 322.613281 C 601.464844 337.511719 536.65625 342.234375 474.027344 358.949219 L 474.027344 360.402344 C 537.746094 347.320312 604.007812 342.234375 666.273438 324.066406 C 667.179688 324.066406 666.273438 322.792969 666.273438 322.613281 L 698.039062 319.160156 Z M 692.957031 322.429688 " fill-opacity="1" fill-rule="nonzero"/></g><path fill="#4d4c4d" d="M 368.921875 535.714844 C 364.019531 531.175781 358.574219 527.175781 353.128906 523.179688 C 352.21875 523.179688 350.949219 523.179688 351.855469 524.816406 C 356.757812 529.355469 361.660156 534.082031 367.105469 538.078125 C 368.375 538.984375 370.011719 536.804688 368.921875 535.714844 Z M 368.921875 535.714844 " fill-opacity="1" fill-rule="nonzero"/><path fill="#4d4c4d" d="M 361.296875 546.980469 C 356.265625 542.480469 350.941406 538.363281 345.320312 534.625 C 344.050781 534.625 342.78125 535.535156 343.871094 536.625 C 348.402344 541.382812 353.242188 545.804688 358.390625 549.886719 C 360.390625 551.523438 363.476562 548.796875 361.296875 546.980469 Z M 361.296875 546.980469 " fill-opacity="1" fill-rule="nonzero"/><path fill="#4d4c4d" d="M 406.5 366.03125 L 386.53125 367.488281 C 385.441406 367.488281 385.441406 369.304688 386.53125 369.121094 L 406.5 366.941406 C 406.5 366.941406 407.222656 366.03125 406.5 366.03125 Z M 406.5 366.03125 " fill-opacity="1" fill-rule="nonzero"/><path fill="#4d4c4d" d="M 187.023438 240.679688 C 175.535156 238.1875 163.914062 236.671875 152.171875 236.136719 C 150.898438 236.136719 151.082031 237.773438 152.171875 237.953125 C 163.789062 239.226562 175.226562 241.769531 186.84375 243.222656 C 188.113281 243.585938 188.476562 241.042969 187.023438 240.679688 Z M 187.023438 240.679688 " fill-opacity="1" fill-rule="nonzero"/><path fill="#4d4c4d" d="M 347.863281 267.929688 C 336.425781 265.929688 324.808594 265.023438 313.371094 263.023438 C 312.464844 263.023438 311.917969 264.296875 313.371094 264.476562 C 324.808594 266.476562 336.425781 267.382812 347.863281 269.382812 C 348.40625 270.472656 348.769531 269.019531 347.863281 267.929688 Z M 347.863281 267.929688 " fill-opacity="1" fill-rule="nonzero"/><path fill="#4d4c4d" d="M 564.25 291.003906 C 512.152344 288.820312 460.59375 283.917969 408.675781 279.375 L 408.675781 280.464844 C 460.257812 288.070312 512.117188 292.191406 564.25 292.820312 C 564.5 292.820312 564.714844 292.730469 564.890625 292.550781 C 565.070312 292.375 565.160156 292.160156 565.160156 291.910156 C 565.160156 291.660156 565.070312 291.445312 564.890625 291.269531 C 564.714844 291.089844 564.5 291.003906 564.25 291.003906 Z M 564.25 291.003906 " fill-opacity="1" fill-rule="nonzero"/></svg>