<svg width="13" height="13" viewBox="0 0 13 13" fill="none" xmlns="http://www.w3.org/2000/svg">
<path d="M10.5625 6.90625C10.5625 6.79851 10.6053 6.69517 10.6815 6.61899C10.7577 6.5428 10.861 6.5 10.9688 6.5C11.0765 6.5 11.1798 6.5428 11.256 6.61899C11.3322 6.69517 11.375 6.79851 11.375 6.90625V9.75C11.375 10.181 11.2038 10.5943 10.899 10.899C10.5943 11.2038 10.181 11.375 9.75 11.375H3.25C2.81902 11.375 2.4057 11.2038 2.10095 10.899C1.7962 10.5943 1.625 10.181 1.625 9.75V3.25C1.625 2.81902 1.7962 2.4057 2.10095 2.10095C2.4057 1.7962 2.81902 1.625 3.25 1.625H6.09375C6.20149 1.625 6.30483 1.6678 6.38101 1.74399C6.4572 1.82017 6.5 1.92351 6.5 2.03125C6.5 2.13899 6.4572 2.24233 6.38101 2.31851C6.30483 2.3947 6.20149 2.4375 6.09375 2.4375H3.25C3.03451 2.4375 2.82785 2.5231 2.67548 2.67548C2.5231 2.82785 2.4375 3.03451 2.4375 3.25V9.75C2.4375 9.96549 2.5231 10.1722 2.67548 10.3245C2.82785 10.4769 3.03451 10.5625 3.25 10.5625H9.75C9.96549 10.5625 10.1722 10.4769 10.3245 10.3245C10.4769 10.1722 10.5625 9.96549 10.5625 9.75V6.90625ZM6.4025 7.18169C6.36538 7.22196 6.32051 7.25431 6.27057 7.27679C6.22063 7.29927 6.16666 7.31143 6.11191 7.31253C6.05715 7.31362 6.00274 7.30363 5.95195 7.28317C5.90115 7.2627 5.85502 7.23217 5.81632 7.19342C5.77762 7.15466 5.74716 7.10849 5.72676 7.05766C5.70636 7.00683 5.69645 6.95241 5.69763 6.89766C5.6988 6.8429 5.71103 6.78895 5.73359 6.73905C5.75614 6.68914 5.78855 6.64431 5.82887 6.60725L10.8103 1.625H8.53125C8.42351 1.625 8.32017 1.5822 8.24399 1.50601C8.1678 1.42983 8.125 1.32649 8.125 1.21875C8.125 1.11101 8.1678 1.00767 8.24399 0.931488C8.32017 0.855301 8.42351 0.8125 8.53125 0.8125H11.375C11.5905 0.8125 11.7972 0.898102 11.9495 1.05048C12.1019 1.20285 12.1875 1.40951 12.1875 1.625V4.46875C12.1875 4.57649 12.1447 4.67983 12.0685 4.75601C11.9923 4.8322 11.889 4.875 11.7812 4.875C11.6735 4.875 11.5702 4.8322 11.494 4.75601C11.4178 4.67983 11.375 4.57649 11.375 4.46875V2.21L6.4025 7.18169Z" fill="black"/>
</svg>
