<svg width="93" height="93" viewBox="0 0 93 93" fill="none" xmlns="http://www.w3.org/2000/svg">
<mask id="mask0_14_39" style="mask-type:luminance" maskUnits="userSpaceOnUse" x="41" y="48" width="9" height="12">
<path d="M41.6777 48.9681H49.3192V59.5889H41.6777V48.9681Z" fill="white"/>
</mask>
<g mask="url(#mask0_14_39)">
<mask id="mask1_14_39" style="mask-type:luminance" maskUnits="userSpaceOnUse" x="41" y="48" width="9" height="12">
<path d="M41.6949 55.9121C41.833 54.0002 41.85 52.278 42.3582 51.3137C42.8233 50.4266 43.8822 49.5484 44.5365 49.204C44.9415 48.9972 45.286 48.9972 45.656 48.9887C46.035 48.9802 46.431 49.0318 46.7929 49.1434C47.1544 49.2556 47.5163 49.4363 47.8177 49.6601C48.1276 49.8754 48.4115 50.1597 48.6268 50.4696C48.8511 50.771 49.0233 51.133 49.135 51.4944C49.2471 51.8559 49.2987 52.2524 49.2901 52.6309C49.2816 53.0014 49.204 53.3974 49.0749 53.7504C48.9457 54.1038 48.7475 54.4568 48.5066 54.7496C48.2738 55.042 47.9725 55.3093 47.654 55.5157C47.3351 55.7139 46.9651 55.8776 46.6032 55.9637C46.2332 56.0583 45.8372 56.0843 45.4582 56.0583C45.0877 56.0238 44.6917 55.9292 44.3473 55.774C44.0028 55.6278 43.6669 55.4125 43.383 55.1627C43.1072 54.9044 42.8574 54.5944 42.6681 54.267C42.4874 53.9401 42.3497 53.5611 42.2721 53.1907C42.203 52.8206 42.1945 52.4157 42.2461 52.0456C42.2976 51.6752 42.4183 51.2877 42.582 50.9518C42.7542 50.6163 42.9865 50.2889 43.2538 50.022C43.5207 49.7552 43.8476 49.5224 44.1836 49.3587C44.5195 49.1865 44.907 49.0748 45.2774 49.0232C45.656 48.9712 46.0524 48.9802 46.4225 49.0573C46.7929 49.1264 47.1719 49.2641 47.4988 49.4538C47.8262 49.6345 48.1362 49.8843 48.386 50.1682C48.6443 50.4526 48.8596 50.7885 49.0058 51.133C49.1524 51.4774 49.2471 51.8734 49.2816 52.2434C49.3072 52.6224 49.2816 53.0184 49.1865 53.3889C49.0919 53.7504 48.9372 54.1208 48.7304 54.4393C48.5322 54.7581 48.2568 55.051 47.9639 55.2919C47.6711 55.5246 46.9476 55.817 46.9651 55.8516C46.9907 55.9032 48.4115 55.0941 48.6613 55.3004C48.9197 55.5071 48.5497 56.7042 48.4115 57.1863C48.3169 57.5052 48.2052 57.7115 48.0671 57.9443C47.9209 58.1766 47.7487 58.4004 47.5504 58.5901C47.3526 58.7879 47.1288 58.9601 46.8961 59.0982C46.6552 59.2444 46.3969 59.3566 46.1296 59.4337C45.8713 59.5198 45.5874 59.5629 45.3115 59.5804C45.0447 59.5974 44.7608 59.5804 44.485 59.5288C44.2181 59.4768 43.9427 59.3907 43.6929 59.2705C43.4431 59.1583 43.2018 59.0121 42.9865 58.8399C42.7713 58.6677 42.5735 58.4694 42.4012 58.2456C42.2375 58.0304 42.0913 57.7891 41.9792 57.5393C41.8671 57.2809 41.7899 57.0141 41.7379 56.7387C41.6863 56.4718 41.6949 55.9121 41.6949 55.9121Z" fill="white"/>
</mask>
<g mask="url(#mask1_14_39)">
<path d="M41.3503 48.6443H49.643V59.9167H41.3503V48.6443Z" fill="#FAC8C8"/>
</g>
</g>
<mask id="mask2_14_39" style="mask-type:luminance" maskUnits="userSpaceOnUse" x="42" y="40" width="15" height="22">
<path d="M42.4851 40.6507H56.7755V62H42.4851V40.6507Z" fill="white"/>
</mask>
<g mask="url(#mask2_14_39)">
<mask id="mask3_14_39" style="mask-type:luminance" maskUnits="userSpaceOnUse" x="42" y="40" width="15" height="22">
<path d="M56.3683 45.708C54.1209 50.2373 52.4763 53.0014 51.4945 55.0941C50.6504 56.9024 49.9961 59.2875 49.3677 60.2778C49.0834 60.7343 48.8766 60.9236 48.5667 61.1649C48.2568 61.4143 47.8864 61.621 47.5164 61.7502C47.1459 61.8879 46.7324 61.9655 46.3364 61.974C45.9403 61.983 45.5183 61.9224 45.1393 61.8107C44.7693 61.6901 44.3903 61.5004 44.0719 61.2681C43.753 61.0357 43.4516 60.7343 43.2278 60.4155C42.9955 60.0885 42.8058 59.7095 42.6941 59.3306C42.582 58.9516 42.5219 58.5385 42.5389 58.142C42.5475 57.746 42.6336 57.333 42.7713 56.9625C42.9094 56.592 43.1157 56.2306 43.3655 55.9206C43.6153 55.6107 43.9338 55.3349 44.2697 55.1196C44.5971 54.9129 44.9846 54.7496 45.3721 54.6545C45.7596 54.5599 46.1727 54.5254 46.5691 54.5599C46.9652 54.5944 47.3697 54.6976 47.7316 54.8528C48.1016 55.0165 48.4546 55.2403 48.7475 55.5071C49.0403 55.774 49.2987 56.1014 49.4969 56.4458C49.6862 56.7988 49.8324 57.1948 49.9014 57.5823C49.9705 57.9698 49.9876 58.3919 49.9275 58.7794C49.8754 59.1754 49.7463 59.5718 49.5655 59.9248C49.3933 60.2778 49.1435 60.6222 48.8596 60.8976C48.5838 61.1819 48.2393 61.4232 47.8864 61.5955C47.5249 61.7677 47.1289 61.8968 46.7324 61.9399C46.3449 61.9915 45.9233 61.983 45.5358 61.9054C45.1483 61.8278 44.7518 61.6816 44.4074 61.4833C44.0629 61.2851 43.736 61.0268 43.4777 60.7254C43.2108 60.433 42.9865 60.071 42.8318 59.7095C42.6766 59.3476 42.5735 58.9345 42.5475 58.547C42.5129 58.151 42.556 57.7806 42.6511 57.35C42.7802 56.7818 43.0386 56.196 43.34 55.4726C43.7615 54.4653 44.4249 53.0615 45.0102 51.899C45.5959 50.7625 46.2247 49.6516 46.853 48.5667C47.4643 47.4988 48.1792 46.4655 48.7304 45.4496C49.2471 44.5024 49.7463 43.2708 50.0907 42.651C50.2719 42.3321 50.3751 42.1599 50.5473 41.9446C50.728 41.7294 50.9348 41.5316 51.1586 41.3679C51.3824 41.2042 51.6407 41.058 51.899 40.9544C52.1489 40.8512 52.4332 40.7736 52.7086 40.7306C52.9844 40.6875 53.2683 40.679 53.5441 40.7045C53.8195 40.7306 54.1039 40.7907 54.3707 40.8768C54.629 40.9718 54.8874 41.101 55.1282 41.2472C55.361 41.4024 55.5848 41.5831 55.774 41.7899C55.9638 41.9877 56.136 42.2205 56.2737 42.4613C56.4028 42.7111 56.515 42.978 56.5921 43.2448C56.6697 43.5121 56.7127 43.796 56.7213 44.0718C56.7302 44.3557 56.6957 44.6401 56.6441 44.9155C56.5836 45.1823 56.3683 45.708 56.3683 45.708Z" fill="white"/>
</mask>
<g mask="url(#mask3_14_39)">
<path d="M42.1946 40.3601H57.0658V62.3189H42.1946V40.3601Z" fill="#FAC8C8"/>
</g>
</g>
<mask id="mask4_14_39" style="mask-type:luminance" maskUnits="userSpaceOnUse" x="32" y="32" width="9" height="13">
<path d="M32.1055 32.5168H40.8475V44.3185H32.1055V32.5168Z" fill="white"/>
</mask>
<g mask="url(#mask4_14_39)">
<mask id="mask5_14_39" style="mask-type:luminance" maskUnits="userSpaceOnUse" x="32" y="32" width="9" height="13">
<path d="M37.6651 37.5705C38.2248 38.4316 34.9696 39.8434 34.1 39.4043C33.342 39.0168 33.1182 36.9071 33.0496 36.1667C33.0151 35.7877 33.0837 35.5809 33.1528 35.297C33.2218 35.0127 33.325 34.7373 33.4627 34.479C33.6004 34.2292 33.7641 33.9793 33.9623 33.7641C34.1516 33.5488 34.3754 33.351 34.6081 33.1873C34.849 33.0236 35.1163 32.8859 35.3831 32.7823C35.65 32.6792 35.9428 32.6016 36.2267 32.567C36.5196 32.533 36.8125 32.533 37.1053 32.567C37.3892 32.6016 37.6821 32.6792 37.949 32.7823C38.2163 32.8859 38.4831 33.0236 38.724 33.1873C38.9567 33.351 39.1805 33.5488 39.3788 33.7641C39.568 33.9793 39.7317 34.2292 39.8694 34.479C40.0071 34.7373 40.1107 35.0127 40.1793 35.297C40.2484 35.5809 40.4291 36.0545 40.2829 36.1667C40.0246 36.3559 37.8543 35.1504 37.8629 35.1333C37.8629 35.1163 38.6379 35.3486 38.9823 35.5379C39.3182 35.7361 39.6456 35.9944 39.904 36.2873C40.1708 36.5802 40.3946 36.9246 40.5498 37.2861C40.7045 37.6476 40.7996 38.0526 40.8337 38.4401C40.8682 38.8276 40.8337 39.2496 40.7391 39.6281C40.6444 40.0071 40.4807 40.3861 40.2654 40.722C40.0587 41.049 39.7833 41.3593 39.4734 41.6002C39.172 41.85 38.8101 42.0568 38.4401 42.1859C38.0781 42.3236 37.6651 42.4012 37.2776 42.4097C36.8815 42.4268 36.468 42.3667 36.0976 42.2545C35.719 42.1429 35.3486 41.9531 35.0302 41.7293C34.7113 41.497 34.4184 41.2042 34.1861 40.8857C33.9623 40.5668 33.7726 40.1968 33.6609 39.8179C33.5488 39.4474 33.4887 39.0343 33.4972 38.6468C33.5057 38.2504 33.5918 37.8458 33.721 37.4754C33.8587 37.1054 34.0654 36.7434 34.3067 36.442C34.5565 36.1321 34.8665 35.8568 35.1934 35.6415C35.5208 35.4347 35.9083 35.271 36.2873 35.1764C36.6663 35.0818 37.0793 35.0472 37.4668 35.0818C37.8629 35.1073 38.2678 35.2109 38.6208 35.3656C38.9823 35.5208 39.3357 35.7446 39.6281 36.003C39.9125 36.2613 40.1793 36.5887 40.369 36.9331C40.5668 37.2691 40.7045 37.6651 40.7821 38.0441C40.8512 38.4316 40.8682 38.8446 40.8166 39.2321C40.7565 39.6196 40.6359 40.0246 40.4637 40.3691C40.2915 40.722 40.0502 41.058 39.7748 41.3418C39.499 41.6177 39.1545 41.8585 38.8016 42.0307C38.4571 42.203 38.0611 42.3321 37.6736 42.3837C37.2861 42.4357 36.9331 42.5304 36.4766 42.3496C35.6415 42.0137 33.9708 40.7045 33.4111 39.6111C32.9029 38.6123 33.0406 36.9331 33.0496 36.1667C33.0496 35.7792 33.0837 35.5809 33.1528 35.297C33.2218 35.0127 33.325 34.7373 33.4627 34.479C33.6004 34.2292 33.7641 33.9793 33.9623 33.7641C34.1516 33.5488 34.3754 33.351 34.6081 33.1873C34.849 33.0236 35.1163 32.8859 35.3831 32.7823C35.65 32.6792 35.9428 32.6016 36.2267 32.567C36.5196 32.533 36.8125 32.533 37.1053 32.567C37.3892 32.6016 37.6821 32.6792 37.949 32.7823C38.2163 32.8859 38.4831 33.0236 38.724 33.1873C38.9567 33.351 39.1805 33.5488 39.3788 33.7641C39.568 33.9793 39.7317 34.2292 39.8694 34.479C40.0071 34.7373 40.1107 35.0127 40.1793 35.297C40.2484 35.5724 40.3085 35.8998 40.2829 36.1581C40.2569 36.399 40.0847 36.4941 40.0587 36.804C39.9986 37.579 40.9974 39.6456 40.7651 40.8943C40.5323 42.0823 39.7918 43.6583 38.776 44.1319C37.6391 44.6656 35.0302 43.9252 34.0224 43.4516C33.4371 43.1677 33.1182 42.7026 32.8343 42.3581C32.6361 42.1168 32.524 41.9016 32.4123 41.6518C32.3002 41.4024 32.2141 41.1351 32.171 40.8597C32.1194 40.5929 32.1024 40.3085 32.1194 40.0417C32.1365 39.7663 32.1885 39.4819 32.2746 39.2236C32.3517 38.9653 32.4724 38.7069 32.619 38.4746C32.7567 38.2418 32.9375 38.0181 33.1267 37.8198C33.325 37.6306 33.5488 37.4583 33.7815 37.3206C34.0139 37.174 34.2722 37.0623 34.5391 36.9762C34.7974 36.8986 35.0732 36.847 35.3486 36.8385C35.624 36.821 35.9083 36.8385 36.1752 36.8901C36.442 36.9417 36.7093 37.0193 36.9587 37.1399C37.2085 37.2516 37.6651 37.5705 37.6651 37.5705Z" fill="white"/>
</mask>
<g mask="url(#mask5_14_39)">
<path d="M31.7749 32.2226H41.1781V44.4912H31.7749V32.2226Z" fill="#FAC8C8"/>
</g>
</g>
<mask id="mask6_14_39" style="mask-type:luminance" maskUnits="userSpaceOnUse" x="40" y="42" width="16" height="23">
<path d="M40.0703 42.137H55.6851V64.5995H40.0703V42.137Z" fill="white"/>
</mask>
<g mask="url(#mask6_14_39)">
<mask id="mask7_14_39" style="mask-type:luminance" maskUnits="userSpaceOnUse" x="40" y="42" width="16" height="23">
<path d="M40.0847 57.1347C40.0847 57.1262 40.1278 56.9024 40.1278 56.8418C40.1193 56.8163 40.1018 56.7902 40.1018 56.7902C40.1018 56.7817 40.1193 56.8333 40.1278 56.8333C40.1363 56.8333 40.1363 56.7212 40.1538 56.6526C40.1708 56.5234 40.2139 56.1704 40.2224 56.1615C40.2224 56.1529 40.3431 55.8601 40.4031 55.7053C40.4637 55.5587 40.5843 55.2573 40.5843 55.2488C40.5843 55.2488 40.7736 54.9819 40.8682 54.8527C40.9629 54.7151 41.1526 54.4567 41.1526 54.4567C41.1526 54.4567 41.1526 54.4567 41.1611 54.4567C41.1611 54.4482 41.4024 54.2414 41.5316 54.1378C41.6518 54.0262 41.9016 53.8194 41.9016 53.8194C41.9101 53.8109 42.0482 53.7764 42.1514 53.6902C42.4788 53.4149 43.4085 52.2093 43.7875 51.4253C44.1319 50.7194 44.0718 50.0135 44.4163 49.247C44.8468 48.2913 45.6389 47.2664 46.3623 46.2071C47.1974 44.976 47.8948 42.8142 49.1434 42.3236C50.401 41.8329 52.7946 42.4267 53.8885 43.2793C54.8958 44.0718 55.6708 45.7851 55.6538 47.0081C55.6363 48.1962 54.6115 49.4623 53.871 50.5127C53.1476 51.5375 51.4169 53.0359 51.2962 53.2426C51.2792 53.2682 51.2792 53.2597 51.2792 53.2857C51.2877 53.492 52.3556 55.1712 52.3816 56.2476C52.4071 57.5137 51.503 59.5718 51.0208 60.424C50.771 60.872 50.3835 61.0873 50.2458 61.3196C50.1768 61.4402 50.1682 61.5093 50.1427 61.621C50.0996 61.7587 50.0821 61.9484 50.0391 62.0601C50.0045 62.1377 49.953 62.1807 49.9274 62.2498C49.8929 62.3099 49.8929 62.3789 49.8498 62.4565C49.7893 62.5597 49.6601 62.6889 49.574 62.8095C49.4968 62.9301 49.4278 63.0934 49.3417 63.1885C49.2901 63.2486 49.2295 63.2746 49.178 63.3262C49.1264 63.3777 49.1004 63.4468 49.0403 63.5069C48.9456 63.5845 48.7905 63.6621 48.6698 63.7482C48.5496 63.8343 48.429 63.972 48.3254 64.0321C48.2568 64.0752 48.1877 64.0837 48.1191 64.1182C48.0585 64.1442 48.0155 64.2043 47.9379 64.2389C47.8262 64.2904 47.6455 64.3079 47.5073 64.351C47.3611 64.394 47.2149 64.4887 47.0943 64.5142C47.0081 64.5317 46.9391 64.5142 46.8705 64.5232C46.7929 64.5317 46.7413 64.5748 46.6552 64.5833C46.5345 64.5918 46.3623 64.5488 46.2156 64.5488C46.0609 64.5488 45.8887 64.5833 45.7681 64.5748C45.6819 64.5573 45.6304 64.5232 45.5528 64.5057C45.4837 64.4972 45.4151 64.5142 45.329 64.4972C45.2168 64.4712 45.0621 64.3765 44.924 64.325C44.7778 64.2819 44.6056 64.2559 44.4934 64.2043C44.4163 64.1698 44.3732 64.1097 44.3127 64.0752C44.2441 64.0406 44.175 64.0406 44.1059 63.989C44.0028 63.9289 43.8906 63.7913 43.7705 63.7051C43.6583 63.6101 43.4 63.4553 43.4085 63.4553C43.4085 63.4468 43.5807 63.55 43.5893 63.5414C43.5982 63.5329 43.2623 63.3176 43.1071 63.1279C42.8748 62.8526 42.5043 62.1722 42.4357 61.9829C42.4097 61.9309 42.4357 61.9224 42.4097 61.8708C42.3236 61.6986 41.5831 61.0012 41.5056 60.872C41.497 60.846 41.5056 60.8375 41.4885 60.8204C41.4625 60.7774 41.2988 60.6998 41.3073 60.6738C41.3073 60.6482 41.4109 60.6652 41.428 60.6307C41.471 60.5446 41.2903 60.1226 41.2042 59.9934C41.1611 59.9163 41.058 59.8557 41.058 59.8557C41.058 59.8472 40.8768 59.5803 40.7821 59.4426C40.696 59.3045 40.5153 59.0462 40.5153 59.0377C40.5153 59.0291 40.4031 58.7277 40.3516 58.5726C40.2915 58.4178 40.1879 58.1164 40.1793 58.1079C40.1793 58.1079 40.1538 57.789 40.1363 57.6253C40.1193 57.4621 40.0847 57.1347 40.0847 57.1347Z" fill="white"/>
</mask>
<g mask="url(#mask7_14_39)">
<path d="M39.7402 41.9791H56.0067V64.9174H39.7402V41.9791Z" fill="#FAC8C8"/>
</g>
</g>
<mask id="mask8_14_39" style="mask-type:luminance" maskUnits="userSpaceOnUse" x="27" y="14" width="16" height="32">
<path d="M27.5557 14.6963H42.5964V45.3518H27.5557V14.6963Z" fill="white"/>
</mask>
<g mask="url(#mask8_14_39)">
<mask id="mask9_14_39" style="mask-type:luminance" maskUnits="userSpaceOnUse" x="27" y="14" width="16" height="32">
<path d="M27.582 33.1357C28.3153 28.2444 28.3754 27.0734 28.7082 25.8764C29.0706 24.5502 29.6299 23.0692 30.3098 21.8637C30.9749 20.6927 31.8436 19.7024 32.6976 18.7291C33.5587 17.7389 35.4554 15.9906 35.4778 15.9736C35.4778 15.9736 35.6895 15.7668 35.7953 15.6637C35.9012 15.5601 36.1052 15.3623 36.1124 15.3538C36.12 15.3538 36.3618 15.2156 36.4829 15.147C36.6111 15.0694 36.8529 14.9317 36.8605 14.9317C36.8681 14.9232 37.1327 14.8541 37.2686 14.8196C37.4045 14.7851 37.6691 14.7165 37.6768 14.7165C37.6839 14.7165 37.9562 14.725 38.0921 14.725C38.2356 14.725 38.5078 14.7335 38.5078 14.7335C38.5155 14.7335 38.7796 14.8111 38.9155 14.8541C39.0519 14.8972 39.316 14.9748 39.316 14.9748C39.3236 14.9833 39.5654 15.1295 39.6865 15.2071C39.8071 15.2847 40.0489 15.4309 40.0565 15.4399C40.0565 15.4399 40.2605 15.6552 40.3588 15.7583C40.4646 15.8615 40.6687 16.0767 40.6687 16.0767C40.6687 16.0857 40.6763 16.0942 40.6763 16.0942C40.6839 16.1028 40.6839 16.1028 40.6839 16.1028C40.6911 16.1113 40.8422 16.3696 40.918 16.4988C40.9934 16.6365 41.1445 16.8948 41.1522 16.8948C41.1522 16.9038 41.2428 17.1962 41.2881 17.3514C41.341 17.4976 41.4316 17.7904 41.4316 17.799C41.4316 17.799 41.4621 18.1264 41.4769 18.2726C41.4845 18.3932 41.4697 18.5399 41.5074 18.626C41.5374 18.6861 41.6433 18.7462 41.6433 18.7552C41.6509 18.7552 41.8097 18.996 41.885 19.1166C41.9684 19.2373 42.1191 19.4696 42.1267 19.4781C42.1267 19.4781 42.225 19.754 42.2779 19.8916C42.3308 20.0293 42.4366 20.3052 42.4366 20.3052C42.4366 20.3137 42.4743 20.6066 42.4972 20.7528C42.5196 20.9079 42.5649 21.1918 42.5649 21.2004C42.5649 21.2093 42.5425 21.5017 42.5272 21.6569C42.5196 21.8031 42.4972 22.096 42.4972 22.1045C42.4972 22.1135 42.4138 22.3889 42.3761 22.5351C42.3308 22.6732 42.2478 22.9571 42.2478 22.9656C42.2478 22.9656 42.1043 23.2154 42.0361 23.3446C41.9684 23.4738 41.8245 23.7236 41.8245 23.7236V23.7321C41.8173 23.7321 41.6356 23.9389 41.5374 24.042C41.4392 24.1456 41.3863 24.2142 41.2504 24.3524C40.9557 24.6708 39.8905 25.3597 39.7999 25.8593C39.7394 26.2208 40.1776 26.4621 40.2529 26.9442C40.374 27.7538 40.0489 29.3038 39.9358 30.3887C39.83 31.379 39.6712 32.6791 39.6035 33.2218C39.573 33.4281 39.5578 33.5142 39.543 33.6609C39.5277 33.8156 39.543 33.9968 39.5201 34.117C39.4977 34.2031 39.4595 34.2552 39.4447 34.3238C39.4295 34.4014 39.4371 34.4704 39.4142 34.5476C39.3766 34.6682 39.2783 34.8149 39.2254 34.9526C39.1725 35.0817 39.1348 35.2625 39.0743 35.3656C39.0366 35.4432 38.9837 35.4778 38.946 35.5379C38.9083 35.6069 38.8931 35.6845 38.8554 35.7446C38.8249 35.7877 38.7648 35.7877 38.7572 35.8482C38.7267 36.046 39.2631 36.6403 39.3689 37.217C39.5277 38.1041 39.4447 39.6196 39.1725 40.722C38.9007 41.8329 38.4702 43.0986 37.7297 43.8566C36.9363 44.6656 35.206 45.4066 34.4655 45.3115C34.0422 45.2599 33.7856 44.7002 33.5363 44.6055C33.3927 44.5454 33.2869 44.5795 33.1505 44.571C33.0147 44.5625 32.7276 44.5365 32.72 44.5365C32.7124 44.5365 32.4406 44.4333 32.3047 44.3817C32.1683 44.3302 31.8966 44.2351 31.8889 44.2351C31.8889 44.2266 31.6472 44.0543 31.5189 43.9682C31.3978 43.8821 31.1561 43.7099 31.1485 43.7099C31.1408 43.7014 30.6121 42.7541 30.582 42.7281C30.5591 42.7111 30.2116 42.4788 30.2039 42.4698C30.2039 42.4698 29.9999 42.2375 29.8945 42.1254C29.7886 42.0052 29.5846 41.7809 29.5846 41.7724C29.5769 41.7724 29.4334 41.497 29.3504 41.3504C29.2747 41.2127 29.1235 40.9373 29.1235 40.9288C29.1235 40.9198 29.0329 40.6099 28.9876 40.4552C28.9423 40.3 28.8593 39.9901 28.8593 39.9816C28.8593 39.9726 28.8365 39.6541 28.8288 39.4904C28.8136 39.3182 28.7988 38.9998 28.7988 38.9913C28.7988 38.9823 28.8441 38.6639 28.8665 38.5002C28.897 38.3365 28.9423 38.018 28.9423 38.0095C28.9499 38.001 29.1011 37.6305 29.1011 37.6045C29.0782 37.5359 27.582 33.1357 27.582 33.1357Z" fill="white"/>
</mask>
<g mask="url(#mask9_14_39)">
<path d="M27.2803 14.372H42.8673V45.6685H27.2803V14.372Z" fill="#FAC8C8"/>
</g>
</g>
<mask id="mask10_14_39" style="mask-type:luminance" maskUnits="userSpaceOnUse" x="34" y="22" width="8" height="9">
<path d="M34.2651 22.8481H41.6196V30.0344H34.2651V22.8481Z" fill="white"/>
</mask>
<g mask="url(#mask10_14_39)">
<mask id="mask11_14_39" style="mask-type:luminance" maskUnits="userSpaceOnUse" x="34" y="22" width="8" height="9">
<path d="M39.5682 23.4307C40.3346 23.9389 40.6706 24.2232 40.8944 24.5071C41.1182 24.8 41.3074 25.1359 41.4196 25.4804C41.5402 25.8248 41.6088 26.2123 41.6088 26.5738C41.6178 26.9442 41.5572 27.3232 41.4366 27.6762C41.3249 28.0206 41.1442 28.3651 40.9289 28.6579C40.7136 28.9504 40.4293 29.2177 40.1279 29.424C39.8265 29.6307 39.4735 29.7944 39.1291 29.8976C38.7761 30.0012 38.3886 30.0442 38.0267 30.0268C37.6567 30.0097 37.2777 29.9321 36.9418 29.7944C36.5973 29.6653 36.2614 29.467 35.986 29.2347C35.7017 29.0024 35.4519 28.701 35.2626 28.3906C35.0733 28.0807 34.9267 27.7192 34.8406 27.3663C34.763 27.0129 34.7374 26.6254 34.772 26.2554C34.815 25.8934 34.9096 25.5234 35.0644 25.1875C35.211 24.8516 35.4263 24.5331 35.6761 24.2663C35.9255 23.999 36.2358 23.7581 36.5543 23.5859C36.8727 23.4137 37.2432 23.2845 37.6047 23.224C37.9666 23.1639 38.3541 23.1639 38.7156 23.2155C39.0685 23.276 39.439 23.3962 39.7664 23.5599C40.0934 23.7321 40.4033 23.9649 40.6531 24.2317C40.9029 24.4901 41.1267 24.8085 41.2819 25.1444C41.4366 25.4718 41.5487 25.8418 41.5918 26.2038C41.6263 26.5653 41.6088 26.9613 41.5402 27.3143C41.4626 27.6677 41.3164 28.0377 41.1352 28.3476C40.9459 28.6579 40.6961 28.9593 40.4208 29.2002C40.1449 29.4329 39.818 29.6393 39.4735 29.7774C39.1376 29.9151 38.7586 30.0012 38.3971 30.0268C38.0267 30.0442 37.6477 30.0097 37.2947 29.9151C36.9418 29.8204 36.6144 29.6567 36.2789 29.4585C35.9084 29.2262 35.4434 28.8643 35.1595 28.5718C34.9527 28.3476 34.815 28.1413 34.6858 27.9C34.5567 27.6587 34.4531 27.4004 34.3845 27.1335C34.3154 26.8752 34.2723 26.5913 34.2723 26.324C34.2638 26.0486 34.2894 25.7643 34.3584 25.5059C34.4185 25.2391 34.5136 24.9722 34.6338 24.7309C34.7545 24.4901 34.9096 24.2488 35.0904 24.042C35.2626 23.8357 35.4779 23.646 35.6932 23.4913C35.917 23.3361 36.1668 23.1984 36.4166 23.0948C36.6749 23.0002 36.9418 22.9226 37.2086 22.8885C37.4845 22.854 37.7598 22.8454 38.0352 22.871C38.3025 22.9055 38.5779 22.9656 38.8362 23.0607C39.0946 23.1468 39.5682 23.4307 39.5682 23.4307Z" fill="white"/>
</mask>
<g mask="url(#mask11_14_39)">
<path d="M33.928 22.5266H41.9565V30.3712H33.928V22.5266Z" fill="#FAC8C8"/>
</g>
</g>
<mask id="mask12_14_39" style="mask-type:luminance" maskUnits="userSpaceOnUse" x="38" y="13" width="15" height="12">
<path d="M38.2222 13.8962H52.7893V24.2259H38.2222V13.8962Z" fill="white"/>
</mask>
<g mask="url(#mask12_14_39)">
<mask id="mask13_14_39" style="mask-type:luminance" maskUnits="userSpaceOnUse" x="38" y="13" width="15" height="12">
<path d="M38.3025 20.0294C38.8192 18.0318 39.3614 16.5419 40.1625 15.7843C40.9976 15.0004 42.3408 14.5613 43.4863 14.2514C44.6057 13.9585 45.7166 13.8809 46.9392 13.9415C48.3601 14.0191 50.668 14.3545 51.5031 14.8627C51.9337 15.1125 52.0628 15.4399 52.2611 15.7754C52.4503 16.1113 52.6055 16.4988 52.6831 16.8863C52.7602 17.2653 52.7692 17.6873 52.7262 18.0748C52.6741 18.4623 52.5539 18.8583 52.3902 19.2113C52.218 19.5557 51.9767 19.9002 51.7013 20.176C51.4345 20.4599 51.0986 20.7012 50.7456 20.8819C50.4012 21.0542 50.0047 21.1833 49.6172 21.2434C49.2297 21.2955 48.8166 21.2865 48.4291 21.2179C48.0416 21.1488 47.6541 21.0111 47.3097 20.8218C46.9738 20.6321 46.6464 20.3738 46.3795 20.0899C46.1126 19.797 45.8888 19.4526 45.7337 19.0907C45.57 18.7377 45.4668 18.3331 45.4323 17.9456C45.3977 17.5581 45.4238 17.1446 45.5184 16.7657C45.6045 16.3871 45.7682 15.9996 45.975 15.6722C46.1817 15.3363 46.4571 15.0264 46.7585 14.7766C47.0599 14.5268 47.4214 14.3205 47.7833 14.1823C48.1533 14.0446 48.5583 13.9585 48.9458 13.95C49.3418 13.933 49.7553 13.9845 50.1253 14.0962C50.5043 14.2083 50.8748 14.3891 51.1932 14.6129C51.5116 14.8371 51.813 15.1295 52.0458 15.4484C52.2696 15.7583 52.4589 16.1288 52.5795 16.4988C52.7001 16.8778 52.7602 17.2823 52.7517 17.6788C52.7432 18.0663 52.6741 18.4794 52.5364 18.8413C52.4073 19.2113 52.2095 19.5732 51.9682 19.8831C51.7269 20.1845 51.417 20.4684 51.09 20.6837C50.7626 20.899 50.3837 21.0627 50.0047 21.1663C49.6262 21.2609 49.2126 21.2955 48.8251 21.2694C48.4376 21.2434 48.0331 21.1488 47.6712 20.9941C47.3097 20.8474 46.6464 20.3998 46.6638 20.3653C46.6809 20.3222 48.6789 21.1663 48.6614 21.2179C48.6359 21.2865 45.9404 19.9432 45.3206 20.2962C44.838 20.5635 44.9762 21.7946 44.7609 22.2682C44.6227 22.5782 44.4851 22.7593 44.3128 22.9657C44.1321 23.1809 43.9253 23.3706 43.7015 23.5343C43.4863 23.6976 43.2364 23.8357 42.9781 23.9389C42.7283 24.051 42.4529 24.1196 42.1775 24.1627C41.9102 24.2057 41.6263 24.2143 41.3505 24.1887C41.0751 24.1627 40.7998 24.1026 40.5414 24.0165C40.2831 23.9218 40.0248 23.8012 39.792 23.646C39.5597 23.4998 39.3444 23.3191 39.1547 23.1123C38.9654 22.9141 38.8017 22.6818 38.664 22.449C38.5349 22.2081 38.4227 21.9413 38.3456 21.683C38.2765 21.4157 38.2335 21.1318 38.225 20.8559C38.2164 20.5806 38.3025 20.0294 38.3025 20.0294Z" fill="white"/>
</mask>
<g mask="url(#mask13_14_39)">
<path d="M37.8806 13.597H53.0886V24.5331H37.8806V13.597Z" fill="#FAC8C8"/>
</g>
</g>
<mask id="mask14_14_39" style="mask-type:luminance" maskUnits="userSpaceOnUse" x="46" y="14" width="19" height="33">
<path d="M46.6196 14.7501H64.7218V46.1367H46.6196V14.7501Z" fill="white"/>
</mask>
<g mask="url(#mask14_14_39)">
<mask id="mask15_14_39" style="mask-type:luminance" maskUnits="userSpaceOnUse" x="46" y="14" width="19" height="33">
<path d="M46.6721 22.2857C46.7067 21.1748 46.7753 20.8905 46.8704 20.6321C46.9735 20.3738 47.1027 20.124 47.2664 19.9002C47.4211 19.6679 47.6108 19.4526 47.8176 19.2718C48.0239 19.0906 48.2652 18.9274 48.5065 18.7982C48.7558 18.6691 49.0487 18.5655 49.29 18.5054C49.4878 18.4538 49.7806 18.4879 49.8322 18.4363C49.8497 18.4192 49.8322 18.4018 49.8412 18.3762C49.8412 18.2901 49.8668 17.9196 49.8668 17.9196C49.8668 17.9111 49.9529 17.6268 49.9959 17.4805C50.0475 17.3343 50.1336 17.05 50.1336 17.0415C50.1426 17.0329 50.2973 16.7831 50.3749 16.6454C50.4525 16.5163 50.6072 16.2579 50.6072 16.2579C50.6162 16.249 50.8225 16.0427 50.9346 15.9305C51.0378 15.8274 51.2531 15.6121 51.262 15.6031C51.262 15.6031 51.5204 15.4484 51.6495 15.3708C51.7787 15.2932 52.037 15.1385 52.0455 15.1295C52.0455 15.1295 52.3384 15.0434 52.4761 14.9918C52.6223 14.9488 52.9152 14.8627 52.9152 14.8627C52.9152 14.8542 52.9152 14.8627 52.9152 14.8542C52.9237 14.8542 53.2251 14.8371 53.3717 14.8281C53.5265 14.8196 53.8279 14.8026 53.8364 14.8026C53.8364 14.8026 54.1293 14.8542 54.2844 14.8887C54.4306 14.9143 54.732 14.9663 54.732 14.9663C54.7406 14.9663 55.0164 15.0954 55.1541 15.1555C55.2918 15.2156 55.5676 15.3363 55.5676 15.3448C55.5761 15.3448 55.8084 15.5345 55.9291 15.6292C56.0497 15.7153 56.2906 15.9045 56.2906 15.9045C56.2995 15.9135 56.4803 16.1458 56.5749 16.2665C56.6695 16.3871 56.8592 16.6194 56.8592 16.628C56.8592 16.628 56.8678 16.6885 56.9108 16.7316C57.0225 16.8778 57.4961 17.1361 57.858 17.4976C58.4864 18.1434 59.382 19.4781 60.1485 20.4429C60.8975 21.3901 61.7931 22.2427 62.4219 23.25C63.0332 24.2403 63.6791 25.5234 63.8773 26.4276C64.015 27.0474 63.8342 27.8915 63.8943 28.0722C63.9029 28.1067 63.9114 28.0982 63.9374 28.1323C63.989 28.2099 64.2043 28.5373 64.2128 28.5458C64.2128 28.5458 64.3419 28.9593 64.368 28.9593L64.3765 28.9333C64.3765 28.9333 64.3765 28.9849 64.3765 28.9934C64.3765 29.0024 64.3765 29.0024 64.385 29.0024C64.394 29.0455 64.5487 29.467 64.5572 29.467C64.5572 29.476 64.5918 29.7944 64.6092 29.9581C64.6263 30.1218 64.6608 30.4488 64.6608 30.4573C64.6608 30.4573 64.6178 30.7847 64.6003 30.9484C64.5747 31.1031 64.5402 31.4305 64.5317 31.4305C64.5317 31.4305 64.5317 31.4305 64.5317 31.4391C64.5317 31.4391 64.5231 31.4476 64.5231 31.4736C64.5056 31.5768 64.6092 31.9643 64.5662 32.3432C64.4886 33.0927 63.989 34.5045 63.6445 35.633C63.2745 36.8555 62.9386 38.2504 62.3959 39.4129C61.8878 40.4982 60.7858 41.8585 60.536 42.4097C60.4499 42.599 60.4584 42.7111 60.4068 42.8232C60.3638 42.9004 60.3037 42.9434 60.2692 43.0125C60.2261 43.0726 60.2261 43.1417 60.1745 43.2107C60.114 43.3139 59.9678 43.426 59.8731 43.5377C59.7781 43.6583 59.6919 43.8135 59.6058 43.8996C59.5457 43.9597 59.4767 43.9768 59.4251 44.0288C59.365 44.0804 59.339 44.1405 59.2704 44.192C59.1753 44.2696 59.0031 44.3302 58.8829 44.4073C58.7537 44.4934 58.6245 44.6141 58.5124 44.6656C58.4348 44.7087 58.3662 44.7002 58.2971 44.7347C58.2281 44.7607 58.1765 44.8123 58.0989 44.8379C57.9872 44.8809 57.7459 44.8984 57.6598 44.9155C57.6253 44.924 57.6168 44.924 57.5822 44.9415C57.5051 44.9845 57.3329 45.1393 57.2037 45.2343C57.083 45.3375 56.8332 45.5357 56.8247 45.5357C56.8162 45.5443 56.5318 45.6734 56.3767 45.742C56.2305 45.8026 55.9461 45.9403 55.9376 45.9403C55.9291 45.9403 55.6192 46.0004 55.4555 46.0264C55.3003 46.0609 54.9818 46.1125 54.9818 46.121C54.9733 46.121 54.6544 46.0955 54.4912 46.0865C54.3275 46.078 54.0176 46.0609 54.0086 46.0609C54.0001 46.0609 53.6987 45.9663 53.544 45.9143C53.3888 45.8712 53.0789 45.7766 53.0789 45.7681C53.0704 45.7681 52.7945 45.6043 52.6568 45.5182C52.5192 45.4406 52.2523 45.2774 52.2433 45.2684C52.2348 45.2684 52.011 45.0446 51.8989 44.924C51.7872 44.8123 51.5544 44.5885 51.5544 44.5795C51.5459 44.5795 51.3822 44.3042 51.2961 44.1665C51.219 44.0288 51.0467 43.753 51.0467 43.753C51.0467 43.7444 50.9517 43.4431 50.9001 43.2879C50.857 43.1331 50.7539 42.8318 50.7539 42.8232C50.7539 42.8143 50.7364 42.4958 50.7279 42.3321C50.7193 42.1774 50.6933 41.8585 50.6933 41.85C50.7023 41.824 50.857 40.6014 50.9692 40.1623C51.0467 39.8609 51.1414 39.7143 51.219 39.4304C51.3306 39.0429 51.3737 38.3625 51.5289 38.0266C51.6235 37.8288 51.7527 37.7857 51.8648 37.579C52.0455 37.2345 52.1056 36.7004 52.3725 36.1066C52.812 35.1073 54.0346 33.1443 54.4997 32.2401C54.7406 31.7665 55.0765 31.2754 55.0079 31.1292C54.9818 31.0601 54.8011 31.0601 54.7926 31.0601C54.7926 31.0516 54.3876 30.7762 54.0862 30.5179C53.4919 30.0097 52.3725 28.9248 51.5374 28.1067C50.7023 27.2972 49.7721 26.2899 49.0832 25.6266C48.5926 25.1615 48.136 24.8 47.8086 24.4641C47.5763 24.2317 47.4126 24.068 47.2579 23.8357C47.1027 23.6115 46.965 23.3531 46.8704 23.0948C46.7753 22.8365 46.6721 22.2857 46.6721 22.2857Z" fill="white"/>
</mask>
<g mask="url(#mask15_14_39)">
<path d="M46.3276 14.4581H65.0137V46.5018H46.3276V14.4581Z" fill="#FAC8C8"/>
</g>
</g>
<mask id="mask16_14_39" style="mask-type:luminance" maskUnits="userSpaceOnUse" x="38" y="16" width="17" height="12">
<path d="M38.1274 16.1292H54.9671V27.425H38.1274V16.1292Z" fill="white"/>
</mask>
<g mask="url(#mask16_14_39)">
<path d="M38.1274 16.1292H54.9828V27.425H38.1274V16.1292Z" fill="#FAC8C8"/>
</g>
<mask id="mask17_14_39" style="mask-type:luminance" maskUnits="userSpaceOnUse" x="41" y="68" width="12" height="12">
<path d="M41.0464 68.287H52.0112V79.2088H41.0464V68.287Z" fill="white"/>
</mask>
<g mask="url(#mask17_14_39)">
<mask id="mask18_14_39" style="mask-type:luminance" maskUnits="userSpaceOnUse" x="41" y="68" width="12" height="12">
<path d="M41.0835 74.8907C41.8845 70.0254 42.9264 69.1643 44.0028 68.7427C45.2514 68.2601 47.3266 68.1224 48.5752 68.5875C49.6861 69.0096 50.6764 70.0599 51.2446 71.0762C51.8218 72.101 51.925 74.0471 51.994 74.7099C52.0196 74.9512 52.0111 75.0544 52.0026 75.2096C51.9851 75.3472 51.951 75.4764 51.9335 75.6141C51.9165 75.7433 51.9335 75.907 51.9079 76.0191C51.8904 76.0962 51.8559 76.1393 51.8389 76.2084C51.8218 76.2684 51.8303 76.3375 51.8043 76.4066C51.7698 76.5097 51.6666 76.6474 51.6151 76.7681C51.5545 76.8887 51.5204 77.0524 51.4599 77.1471C51.4168 77.2157 51.3653 77.2417 51.3307 77.3018C51.2877 77.3538 51.2791 77.4224 51.2361 77.483C51.167 77.5691 51.0293 77.6637 50.9347 77.7584C50.8486 77.8615 50.7625 77.9996 50.6764 78.0683C50.6163 78.1198 50.5557 78.1373 50.5041 78.1804C50.444 78.2149 50.418 78.275 50.349 78.3181C50.2629 78.3782 50.0996 78.4212 49.979 78.4903C49.8668 78.5504 49.7377 78.654 49.6345 78.6971C49.5569 78.7226 49.4968 78.7226 49.4363 78.7401C49.3677 78.7657 49.3246 78.8087 49.247 78.8262C49.1434 78.8608 48.9802 78.8518 48.842 78.8693C48.7129 78.8948 48.5496 78.9554 48.446 78.9554C48.3859 78.9639 48.3514 78.9209 48.3083 78.9469C48.2482 78.9639 48.2653 79.0846 48.1621 79.1276C47.697 79.2998 44.5365 79.033 43.3399 78.2405C42.246 77.526 41.0835 74.8907 41.0835 74.8907Z" fill="white"/>
</mask>
<g mask="url(#mask18_14_39)">
<path d="M40.739 68.2431H52.3627V79.4721H40.739V68.2431Z" fill="#FAC8C8"/>
</g>
</g>
<mask id="mask19_14_39" style="mask-type:luminance" maskUnits="userSpaceOnUse" x="26" y="12" width="41" height="69">
<path d="M26.9814 12.4H66.0185V80.5906H26.9814V12.4Z" fill="white"/>
</mask>
<g mask="url(#mask19_14_39)">
<path d="M50.7153 73.2469C50.6991 73.6663 50.6951 74.1017 50.6179 74.5171C50.561 74.8386 50.4471 75.1481 50.3166 75.445C50.1538 75.824 49.9138 76.1572 49.6411 76.4626C49.3357 76.8044 48.9939 77.1134 48.6195 77.3785C48.4365 77.5085 48.2369 77.618 48.0373 77.7202C47.8503 77.8139 47.6507 77.887 47.4516 77.944C47.3699 77.9682 47.2883 77.988 47.2058 78.0041C47.1435 78.0211 47.0829 78.0364 47.0242 78.0494C46.9017 78.07 46.7878 78.0866 46.6658 78.0987C46.4828 78.1028 46.2994 78.1068 46.1124 78.0987C45.9415 78.0821 45.7706 78.0615 45.5993 78.0333C45.4611 78.005 45.327 77.9682 45.1925 77.9319C44.9198 77.8296 44.6512 77.7202 44.3866 77.6023C44.3134 77.5691 44.3013 77.5614 44.2847 77.557C44.0161 77.4229 43.7394 77.2766 43.4631 77.1134C43.3573 77.0367 43.255 76.9631 43.1536 76.8815C43.007 76.7519 42.8688 76.6129 42.7303 76.4667C42.6329 76.3487 42.5432 76.2343 42.4535 76.1124C42.3477 75.9495 42.2499 75.7912 42.1521 75.6239C41.9974 75.2988 41.8633 74.9687 41.7373 74.6305C41.7413 74.6471 41.7454 74.6592 41.7494 74.6758C41.7413 74.6556 41.7373 74.635 41.7292 74.6148C41.6476 74.3623 41.5745 74.1098 41.5175 73.8533C41.5014 73.76 41.4929 73.6663 41.4807 73.573V73.5362C41.4359 73.4631 41.4036 73.39 41.4036 73.3003C41.3996 73.1859 41.4404 73.0805 41.4929 72.9742C41.4969 72.9334 41.5014 72.8935 41.5095 72.8522C41.5135 72.8321 41.5216 72.8159 41.5256 72.7957C41.5539 72.6975 41.5906 72.6163 41.6314 72.5387C41.6723 72.462 41.7252 72.3885 41.7821 72.3235C41.7942 72.197 41.8104 72.075 41.8225 71.949C41.8552 71.8799 41.892 71.8068 41.9243 71.7292C41.9763 71.6148 42.0324 71.5 42.0885 71.3852C42.0826 71.3471 42.0858 71.3076 42.0997 71.2695C42.1396 71.165 42.2199 71.0758 42.2885 70.987C42.4307 70.7107 42.5809 70.4389 42.746 70.177C42.8061 70.0855 42.8679 69.9998 42.9419 69.9182C42.9707 69.885 42.9989 69.8487 43.0276 69.8119C43.0478 69.7877 43.068 69.7594 43.0841 69.7307C43.1617 69.6657 43.2348 69.6087 43.3164 69.5518C43.4994 69.4338 43.6703 69.328 43.8537 69.2342C43.9798 69.1732 44.1058 69.1163 44.2403 69.0634C44.2946 69.0441 44.3484 69.0275 44.4031 69.0122C44.5076 68.9638 44.6126 68.9154 44.7166 68.8638C44.9158 68.7665 45.1315 68.6808 45.3432 68.6198C45.6239 68.5346 45.9213 68.5059 46.2101 68.5099C46.4869 68.5099 46.7636 68.5588 47.0282 68.6279C47.2318 68.6853 47.4188 68.7821 47.6063 68.8759C48.1799 69.1688 48.758 69.4746 49.246 69.8935C49.4985 70.1178 49.7308 70.3617 49.9587 70.6143C50.1457 70.8215 50.3287 71.021 50.4551 71.2731C50.748 71.8714 50.7399 72.5961 50.7153 73.2469ZM53.1452 71.827C52.9461 71.3426 52.7057 70.8537 52.429 70.4102C52.1482 69.959 51.8387 69.5154 51.4643 69.1365C50.7319 68.3875 49.816 67.9035 48.819 67.6066C48.5625 67.5331 48.2983 67.4882 48.0373 67.4313C47.7933 67.3828 47.5493 67.3254 47.3009 67.2887C46.9959 67.2443 46.6864 67.2196 46.377 67.2115C46.0393 67.2851 45.7056 67.3622 45.3719 67.4515C45.0014 67.5779 44.6471 67.7241 44.2892 67.8793C44.2525 67.895 44.2363 67.8995 44.2237 67.9116C43.6909 68.1677 43.1779 68.457 42.6733 68.7665C42.5836 68.8274 42.5065 68.8759 42.4293 68.9293C42.4212 68.9373 42.4087 68.9454 42.3966 68.9535C42.258 69.1445 42.132 69.3481 42.014 69.5432C41.9122 69.7146 41.8225 69.8895 41.7413 70.0689C41.4929 70.4555 41.2771 70.8659 41.0619 71.2731C40.8094 71.7494 40.5488 72.2539 40.4429 72.7872C40.2191 73.882 40.2842 75.0176 40.569 76.0962C40.8623 77.2112 41.4319 78.2494 42.2907 79.0267C42.706 79.4012 43.2025 79.7021 43.695 79.9667C44.2444 80.2641 44.8346 80.4426 45.445 80.5444C45.7177 80.5897 46.0025 80.6099 46.2832 80.6099C46.56 80.6099 46.8367 80.5937 47.1053 80.561C47.6794 80.5 48.2248 80.3291 48.7661 80.1336C49.747 79.7837 50.6628 79.2671 51.4643 78.5993C51.9607 78.1844 52.3841 77.6754 52.7138 77.1179C53.0232 76.6048 53.2959 76.0437 53.4385 75.4616C53.5888 74.8301 53.6664 74.1914 53.5973 73.5443C53.5318 72.9455 53.3735 72.3804 53.1452 71.827ZM42.3791 26.9133C42.4064 26.899 42.4347 26.8873 42.4621 26.872C42.4751 26.8649 42.4876 26.8564 42.5011 26.8487C42.4607 26.8689 42.4199 26.8936 42.3791 26.9133ZM63.5328 32.0275C63.4445 32.7397 63.2938 33.4394 63.1292 34.1354C63.0722 34.2148 63.0278 34.3045 62.9996 34.4023C62.8408 34.9638 62.7027 35.5294 62.5273 36.0873C62.3322 36.608 62.1205 37.1247 61.8886 37.6337C61.6281 38.1589 61.3347 38.6715 61.0459 39.1841C60.7773 39.6604 60.5091 40.1327 60.2198 40.5924C59.8049 41.2194 59.3694 41.8339 58.9093 42.4362C58.4738 42.9981 58.071 43.5798 57.619 44.1333C57.2324 44.5813 56.8296 45.0168 56.4717 45.4927C56.1295 45.9528 55.7918 46.4166 55.4702 46.8888C55.2056 47.2754 54.9576 47.6701 54.7051 48.0608C54.3916 48.5411 54.0781 49.0255 53.8018 49.526C53.3251 50.4095 52.8815 51.3088 52.4909 52.2367C52.2877 52.7292 52.1123 53.2337 51.9536 53.7428C51.8033 54.2146 51.6894 54.6909 51.567 55.1712C51.453 55.6309 51.3436 56.087 51.2741 56.5589C51.2566 56.675 51.244 56.7912 51.2301 56.9073C51.2203 56.9356 51.21 56.9638 51.2005 56.9921C51.1517 57.18 51.1073 57.3711 51.0664 57.5621C51.0265 57.8451 51.0001 58.1304 50.9741 58.4165C50.9409 58.5735 50.9063 58.7296 50.8754 58.887C50.8265 59.1395 50.7695 59.3835 50.696 59.6279C50.578 59.9656 50.452 60.3033 50.2973 60.6249C50.2053 60.8048 50.0995 60.9788 49.9986 61.155C49.9457 61.2075 49.8977 61.2649 49.8434 61.3165C49.4895 61.6295 49.1106 61.9229 48.728 62.1915C48.5656 62.3014 48.4024 62.3987 48.232 62.4969C47.9835 62.6225 47.731 62.7369 47.4668 62.8306C47.1206 62.9441 46.7627 63.0378 46.4084 63.1235C46.2536 63.1517 46.107 63.176 45.9527 63.1881C45.7589 63.1993 45.5679 63.2002 45.3746 63.1921C45.3028 63.1854 45.2315 63.1782 45.1629 63.1679C45.0611 63.1477 44.9638 63.1235 44.866 63.0948C44.805 63.0706 44.7395 63.0459 44.6745 63.0176C44.4256 62.8952 44.1892 62.7521 43.9591 62.6005C43.7178 62.4418 43.4837 62.2799 43.2581 62.0937C43.0043 61.8762 42.759 61.6417 42.5329 61.3883C42.3387 61.1725 42.1535 60.9478 41.9884 60.7101C41.8216 60.4617 41.6871 60.2379 41.561 60.01C41.4879 59.8634 41.4189 59.7167 41.3574 59.5665C41.3206 59.4521 41.2843 59.3341 41.2601 59.2162C41.2314 59.074 41.2108 58.9354 41.1951 58.7888C41.1767 58.4708 41.1973 58.1465 41.2134 57.8268C41.2341 57.6258 41.2592 57.4258 41.2901 57.2285C41.3511 56.7607 41.3879 56.2924 41.5144 55.8363C41.6566 55.3277 41.8561 54.8474 42.0719 54.3675C42.2957 53.8625 42.5316 53.366 42.7513 52.8615C43.024 52.2511 43.3537 51.6729 43.6712 51.0872C43.952 50.5741 44.2735 50.0857 44.6072 49.6094C44.9247 49.1457 45.2463 48.694 45.6163 48.2666C46.3613 47.4118 47.0735 46.5166 47.9364 45.7757C48.2378 45.3931 48.5387 45.0146 48.8401 44.6361C49.5115 43.7938 50.1668 42.947 50.8305 42.1047C51.1517 41.7056 51.4611 41.2907 51.7499 40.8633C52.0347 40.452 52.2953 40.0246 52.5559 39.5932C52.6577 39.4268 52.7555 39.2635 52.8528 39.1007C52.8882 39.0083 52.9237 38.9186 52.9591 38.8289C53.117 38.4307 53.2793 38.0351 53.4471 37.644C53.4107 37.7292 53.3739 37.8149 53.3372 37.9006C53.6955 37.0291 54.0655 36.1747 54.3997 35.2997C54.4311 35.1477 54.4517 34.9925 54.4755 34.8382C54.6822 34.2036 54.8401 33.5542 54.9065 32.8922C54.9634 32.2944 54.8984 31.6956 54.7437 31.1139C54.5239 30.6049 54.2839 30.1084 54.0234 29.6204C53.8319 29.2989 53.6242 28.9854 53.4089 28.6799C53.3479 28.6109 53.2865 28.5373 53.2255 28.4687C52.9609 28.2238 52.6922 27.9879 52.4321 27.7359C52.2406 27.5529 52.0576 27.3735 51.854 27.2062C51.6463 27.0564 51.4347 26.9133 51.2189 26.7792C51.0929 26.7097 50.9628 26.6451 50.8323 26.5841C50.6655 26.5186 50.4946 26.4621 50.3237 26.4092C49.8743 26.2962 49.4142 26.2065 48.9536 26.1266C48.8989 26.1145 48.8572 26.1087 48.8145 26.1024C48.7087 26.084 48.602 26.063 48.4961 26.0468C47.8409 25.9692 47.1654 25.949 46.5021 25.9289C46.4357 25.9289 46.3689 25.9378 46.3025 25.9392C46.0509 25.9432 45.8002 25.9571 45.5508 25.9795C45.4867 25.9849 45.4221 25.9836 45.3584 25.9899C45.0571 26.0266 44.7601 26.0755 44.4628 26.1406C44.2246 26.2033 43.9838 26.2684 43.7439 26.337C43.5151 26.4052 43.3393 26.4576 43.1689 26.5186C42.9245 26.6209 42.6944 26.746 42.4621 26.872C42.1669 27.0407 41.8826 27.2205 41.614 27.4264C41.4144 27.5932 41.2273 27.7681 41.0403 27.9475C40.7228 28.2691 40.4053 28.6194 40.0998 28.9809C39.7419 29.6769 39.4935 30.4461 39.3553 31.2077C39.188 32.1396 39.1517 33.1003 39.3347 34.0318C39.5136 34.9315 39.8478 35.7904 40.1568 36.6533C40.2788 37.0193 40.3931 37.3897 40.4743 37.7642C40.5438 38.1266 40.5923 38.4926 40.621 38.863C40.621 38.8348 40.6169 38.8061 40.6169 38.7778C40.6457 39.2662 40.6739 39.7627 40.6537 40.2511C40.643 40.352 40.6255 40.452 40.6093 40.5521C40.4775 41.1965 40.2653 41.8208 39.8738 42.3608C39.5769 42.7681 39.2105 43.126 38.8077 43.4274C38.3556 43.7651 37.8632 44.0544 37.3097 44.1925C37.0819 44.2495 36.85 44.2741 36.6177 44.2741C36.3329 44.2741 36.0522 44.2373 35.7714 44.1763C35.7023 44.1598 35.6207 44.1355 35.5355 44.0988C35.2749 44.0584 35.0184 44.0055 34.7578 43.9485C34.6686 43.9198 34.5829 43.8951 34.5017 43.8628C34.3918 43.814 34.2815 43.757 34.1801 43.7C34.0824 43.639 33.9846 43.5781 33.8909 43.513C33.7491 43.4798 33.62 43.4332 33.5047 43.3861C33.3002 43.2242 33.0961 43.0609 32.8948 42.8945C32.5611 42.6053 32.2395 42.2963 31.9179 41.9908C31.5681 41.6571 31.2138 41.3235 30.8801 40.9692C30.7783 40.8472 30.6769 40.7211 30.5832 40.5906C30.4446 40.3875 30.3186 40.1798 30.2047 39.9641C29.8504 39.2191 29.5288 38.4701 29.248 37.6969C29.0704 37.1601 28.9458 36.6084 28.8332 36.0527C28.7829 35.7985 28.7305 35.5451 28.6744 35.2876C28.6659 35.2508 28.6619 35.2266 28.6538 35.202C28.6578 35.2141 28.6619 35.2307 28.6659 35.2428C28.5686 34.7382 28.5116 34.2332 28.4425 33.7246C28.382 33.2613 28.3228 32.7989 28.2775 32.3347C28.2573 31.6082 28.2452 30.8834 28.3031 30.1595C28.3721 29.3007 28.5511 28.4499 28.7587 27.6197C28.9991 26.6469 29.4019 25.719 29.9185 24.8641C30.0042 24.6237 30.0899 24.3798 30.1836 24.1394C30.3585 23.7164 30.5496 23.3056 30.7693 22.9024C31.0828 22.3575 31.4291 21.8359 31.8031 21.3313C32.1368 20.908 32.4709 20.4971 32.8369 20.102C33.3742 19.5853 33.9276 19.0848 34.5138 18.6211C35.1731 18.1609 35.8813 17.7582 36.5814 17.3514C36.6303 17.3186 36.6666 17.3021 36.7034 17.2819C36.6751 17.3021 36.6424 17.3142 36.6137 17.3348C36.9352 17.1558 37.2734 16.9926 37.6111 16.8464C38.5144 16.484 39.4509 16.1875 40.3783 15.9104C40.8102 15.8 41.2493 15.7189 41.6853 15.6292C42.092 15.548 42.4908 15.4749 42.898 15.4054C43.6021 15.3202 44.3058 15.247 45.0185 15.2103C45.7119 15.1713 46.4052 15.1659 47.0991 15.1506C48.4616 15.1376 49.8385 15.1852 51.2005 15.3242C51.7661 15.4018 52.324 15.5157 52.8734 15.6458C53.4188 15.7924 53.948 15.9593 54.4772 16.1503C55.185 16.4356 55.873 16.7446 56.5444 17.107C56.8906 17.3106 57.2243 17.5178 57.5454 17.7461C57.8356 17.9779 58.1083 18.226 58.3688 18.4803C58.6792 18.7942 58.9896 19.1126 59.2793 19.4472C59.5479 19.7647 59.8004 20.0863 60.061 20.42C60.5248 21.0299 60.9522 21.665 61.3428 22.3288C61.7581 23.0737 62.116 23.8304 62.4421 24.608C62.6085 25.0148 62.7511 25.4261 62.8812 25.8495C63.1215 26.72 63.3086 27.6035 63.4472 28.4911C63.5283 29.1011 63.5898 29.703 63.6019 30.3223C63.6019 30.8915 63.5853 31.462 63.5328 32.0275ZM65.9381 28.8122C65.8605 27.7583 65.7103 26.7164 65.49 25.6867C65.2743 24.6731 64.8958 23.7245 64.4648 22.7845C63.5853 20.8757 62.3968 19.109 60.936 17.5913C60.2072 16.8383 59.43 16.0978 58.555 15.5117C57.7288 14.9582 56.8538 14.4774 55.9541 14.0505C55.0101 13.5948 54.0332 13.2324 53.0201 12.9718C51.9329 12.6906 50.818 12.565 49.7026 12.4753C48.6612 12.3897 47.6027 12.4022 46.5609 12.4668C45.5473 12.5242 44.5422 12.5565 43.5411 12.6951C43.0321 12.7682 42.5235 12.8413 42.023 12.9476C41.518 13.0615 41.0175 13.1795 40.521 13.297C40.0079 13.4194 39.5114 13.5782 39.019 13.7571C38.5593 13.9244 38.091 14.0787 37.6434 14.2622C37.1308 14.4774 36.6258 14.7093 36.1499 14.995C35.7185 15.2511 35.3198 15.548 34.9125 15.8373C34.4932 16.1346 34.0622 16.4235 33.6469 16.7244C33.2356 17.0258 32.8696 17.3756 32.4992 17.7295C32.1207 18.0878 31.73 18.4376 31.3797 18.8247C31.0299 19.2073 30.7043 19.6221 30.3989 20.0415C30.0939 20.4442 29.7925 20.8636 29.5324 21.3031C29.2758 21.7345 29.0112 22.1741 28.8117 22.6383C28.425 23.5415 28.1362 24.4654 27.8878 25.4135C27.6312 26.4316 27.4159 27.4484 27.2486 28.4781C27.102 29.3872 27.0477 30.3093 27.0334 31.2296C27.0127 31.4951 26.9979 31.7611 26.9935 32.0275C26.9813 32.5321 27.0056 33.0326 27.0302 33.5336C27.0504 33.9731 27.0706 34.4126 27.1033 34.8521C27.1401 35.2997 27.2132 35.7393 27.2702 36.1868C27.3231 36.6062 27.3801 37.0296 27.4657 37.4444C27.555 37.9046 27.6608 38.3643 27.7828 38.8159C27.9008 39.2478 28.0474 39.6712 28.186 40.0982C28.3327 40.5619 28.4668 41.0302 28.6619 41.4782C28.8897 42.0029 29.1911 42.4833 29.5494 42.9268C29.8791 43.3336 30.2087 43.7287 30.6321 44.0418C30.7388 44.1221 30.8537 44.1916 30.9653 44.2651C31.1914 44.5194 31.4241 44.7661 31.669 45.0025C32.039 45.3649 32.422 45.7147 32.8575 45.9914C33.2684 46.252 33.6958 46.443 34.164 46.5614C34.3712 46.6099 34.5789 46.6588 34.7946 46.6875C35.344 46.7646 35.9015 46.8296 36.4589 46.7565C36.7724 46.7157 37.1066 46.6754 37.4116 46.5655C37.6596 46.4717 37.9 46.3619 38.1363 46.2314C39.2472 45.5842 40.22 44.5791 40.6757 43.3664C40.6986 43.3054 40.7134 43.2421 40.7345 43.1807C41.1421 42.6205 41.4879 42.0124 41.6548 41.3378C41.7727 40.8615 41.8499 40.3852 41.8786 39.8968C41.9068 39.4003 41.9275 38.8958 41.9068 38.3948C41.8745 37.4834 41.5081 36.6205 41.2031 35.7697C41.0027 35.1889 40.8233 34.5848 40.6865 33.9803C40.6156 33.6246 40.5636 33.2725 40.5394 32.9128C40.534 32.8204 40.5398 32.7088 40.5367 32.5962C40.6004 32.3742 40.6636 32.154 40.7448 31.9297C40.8587 31.6611 40.9726 31.401 41.1031 31.1359C41.1964 30.9856 41.2942 30.839 41.4 30.6923C41.5346 30.5295 41.6808 30.3748 41.8274 30.216C41.9701 30.0783 42.1208 29.9433 42.271 29.8133C42.5885 29.5774 42.9061 29.3572 43.2438 29.15C43.3617 29.089 43.4801 29.032 43.5981 28.9791C43.8421 28.8773 44.0865 28.7916 44.343 28.714C44.5301 28.6696 44.7211 28.6328 44.9126 28.6046C45.454 28.5396 45.9913 28.5153 46.5326 28.4947C46.7438 28.4947 46.9555 28.5109 47.1632 28.531C47.269 28.5476 47.3708 28.5597 47.4726 28.5844C47.7534 28.6615 48.0261 28.7508 48.2988 28.8526C48.828 29.0769 49.3487 29.337 49.8573 29.6141C49.9757 29.6873 50.0896 29.7604 50.2035 29.8379C50.2887 29.9111 50.3704 29.9842 50.4516 30.0577C50.578 30.1918 50.6919 30.3259 50.8059 30.4685C50.9525 30.6762 51.0907 30.8794 51.2248 31.0955C51.3185 31.2745 51.4082 31.4575 51.4979 31.6449C51.5871 31.8732 51.6728 32.1046 51.7499 32.3406C51.7948 32.5361 51.8356 32.7316 51.8679 32.9348C51.8966 33.1833 51.9128 33.4358 51.9168 33.6878C51.9128 33.8466 51.9047 34.0094 51.8966 34.1722C51.8639 34.4041 51.8231 34.6279 51.7787 34.8602C51.571 35.6581 51.3185 36.4515 51.0256 37.2206C50.8341 37.6602 50.6144 38.0755 50.3825 38.4944C50.1708 38.8608 49.9551 39.2232 49.7151 39.569C49.4707 39.9112 49.2186 40.2484 48.9661 40.5906C48.0095 41.8316 47.0331 43.0529 46.1007 44.3064C45.1934 45.5232 44.3058 46.7565 43.4635 48.0222C42.8693 48.9138 42.328 49.8373 41.8395 50.7939C41.6198 51.2294 41.3839 51.6689 41.2009 52.1205C40.9932 52.6256 40.8224 53.1341 40.6838 53.6634C40.4192 54.6523 40.1545 55.674 40.0976 56.7033C40.0693 57.1755 40.0653 57.6518 40.1223 58.1241C40.1792 58.6166 40.2402 59.1211 40.3707 59.6055C40.4398 59.862 40.5129 60.1141 40.6107 60.3625C40.6999 60.6025 40.8143 60.8344 40.9282 61.0626C41.0542 61.3147 41.2009 61.5712 41.3718 61.8071C41.4166 61.8722 41.4651 61.9372 41.518 62.0027C41.6485 62.2018 41.8234 62.3893 41.9862 62.5647C42.3567 62.9795 42.7433 63.3661 43.1707 63.72C43.5012 63.9985 43.8654 64.2201 44.2529 64.3945C44.5377 64.569 44.8328 64.7242 45.1508 64.8206C45.5782 64.9507 46.0419 65.0121 46.4855 65.0404C46.6811 65.0565 46.8806 65.0646 47.0757 65.0646C47.365 65.0646 47.6538 65.0444 47.9386 65C48.9886 64.8327 50.0183 64.4259 50.8974 63.8357C51.3207 63.5504 51.7441 63.2374 52.098 62.8669C52.485 62.4561 52.8062 62.0126 53.0587 61.5116C53.482 60.6693 53.7099 59.7252 53.8969 58.809C54.2839 56.9289 54.475 55.016 54.8208 53.1279C54.8468 53.0068 54.8849 52.887 54.9159 52.7668C55.2514 52.1421 55.6205 51.5353 56.0044 50.9388C56.3609 50.388 56.7296 49.8453 57.0736 49.2861C57.3203 48.8891 57.5647 48.4895 57.8163 48.0953C58.4195 47.1642 59.0474 46.2574 59.7359 45.3909C60.0897 44.9433 60.4274 44.4957 60.7409 44.0234C60.7719 43.9763 60.8006 43.9292 60.8315 43.8821C61.176 43.4673 61.5195 43.0524 61.8353 42.6174C62.2183 42.0882 62.5681 41.5428 62.8937 40.9813C63.9679 39.1294 64.5827 37.074 65.1281 35.0149C65.3927 34.0381 65.6327 33.0653 65.7708 32.0638C65.9215 30.9897 66.0193 29.8909 65.9381 28.8122Z" fill="#4D4C4D"/>
</g>
</svg>
